<?xml version="1.0" encoding="utf-8" standalone="no"?>
<!DOCTYPE svg PUBLIC "-//W3C//DTD SVG 1.1//EN"
  "http://www.w3.org/Graphics/SVG/1.1/DTD/svg11.dtd">
<svg xmlns:xlink="http://www.w3.org/1999/xlink" width="483.81375pt" height="659.236562pt" viewBox="0 0 483.81375 659.236562" xmlns="http://www.w3.org/2000/svg" version="1.1">
 <metadata>
  <rdf:RDF xmlns:dc="http://purl.org/dc/elements/1.1/" xmlns:cc="http://creativecommons.org/ns#" xmlns:rdf="http://www.w3.org/1999/02/22-rdf-syntax-ns#">
   <cc:Work>
    <dc:type rdf:resource="http://purl.org/dc/dcmitype/StillImage"/>
    <dc:date>2023-09-15T17:16:02.961105</dc:date>
    <dc:format>image/svg+xml</dc:format>
    <dc:creator>
     <cc:Agent>
      <dc:title>Matplotlib v3.7.1, https://matplotlib.org/</dc:title>
     </cc:Agent>
    </dc:creator>
   </cc:Work>
  </rdf:RDF>
 </metadata>
 <defs>
  <style type="text/css">*{stroke-linejoin: round; stroke-linecap: butt}</style>
 </defs>
 <g id="figure_1">
  <g id="patch_1">
   <path d="M 0 659.236562 
L 483.81375 659.236562 
L 483.81375 0 
L 0 0 
L 0 659.236562 
z
" style="fill: none"/>
  </g>
  <g id="axes_1">
   <g id="patch_2">
    <path d="M 7.2 229.8 
L 476.61375 229.8 
L 476.61375 7.2 
L 7.2 7.2 
L 7.2 229.8 
z
" style="fill: none"/>
   </g>
   <g id="matplotlib.axis_1">
    <g id="xtick_1"/>
    <g id="xtick_2"/>
    <g id="xtick_3"/>
    <g id="xtick_4"/>
    <g id="xtick_5"/>
   </g>
   <g id="matplotlib.axis_2"/>
   <g id="PolyCollection_1">
    <defs>
     <path id="mcbc1b69eb1" d="M 246.987752 -439.554744 
L 246.987752 -441.803834 
L 248.396603 -442.247344 
L 249.805455 -442.766493 
L 251.214306 -443.371692 
L 252.623157 -444.074299 
L 254.032009 -444.886618 
L 255.44086 -445.821876 
L 256.849711 -446.894179 
L 258.258563 -448.11844 
L 259.667414 -449.51028 
L 261.076265 -451.085899 
L 262.485117 -452.861917 
L 263.893968 -454.855172 
L 265.302819 -457.082493 
L 266.711671 -459.560433 
L 268.120522 -462.304968 
L 269.529373 -465.331166 
L 270.938224 -468.652828 
L 272.347076 -472.282102 
L 273.755927 -476.229082 
L 275.164778 -480.501399 
L 276.57363 -485.103798 
L 277.982481 -490.037737 
L 279.391332 -495.30099 
L 280.800184 -500.887283 
L 282.209035 -506.785975 
L 283.617886 -512.981777 
L 285.026738 -519.454543 
L 286.435589 -526.179134 
L 287.84444 -533.12536 
L 289.253292 -540.258016 
L 290.662143 -547.537018 
L 292.070994 -554.917642 
L 293.479846 -562.350861 
L 294.888697 -569.783806 
L 296.297548 -577.160304 
L 297.7064 -584.421537 
L 299.115251 -591.506775 
L 300.524102 -598.354183 
L 301.932953 -604.901705 
L 303.341805 -611.087973 
L 304.750656 -616.853262 
L 306.159507 -622.140437 
L 307.568359 -626.895892 
L 308.97721 -631.070454 
L 310.386061 -634.620227 
L 311.794913 -637.507361 
L 313.203764 -639.700719 
L 314.612615 -641.176443 
L 316.021467 -641.918381 
L 317.430318 -641.918381 
L 318.839169 -641.176443 
L 320.248021 -639.700719 
L 321.656872 -637.507361 
L 323.065723 -634.620227 
L 324.474575 -631.070454 
L 325.883426 -626.895892 
L 327.292277 -622.140437 
L 328.701128 -616.853262 
L 330.10998 -611.087973 
L 331.518831 -604.901705 
L 332.927682 -598.354183 
L 334.336534 -591.506775 
L 335.745385 -584.421537 
L 337.154236 -577.160304 
L 338.563088 -569.783806 
L 339.971939 -562.350861 
L 341.38079 -554.917642 
L 342.789642 -547.537018 
L 344.198493 -540.258016 
L 345.607344 -533.12536 
L 347.016196 -526.179134 
L 348.425047 -519.454543 
L 349.833898 -512.981777 
L 351.24275 -506.785975 
L 352.651601 -500.887283 
L 354.060452 -495.30099 
L 355.469303 -490.037737 
L 356.878155 -485.103798 
L 358.287006 -480.501399 
L 359.695857 -476.229082 
L 361.104709 -472.282102 
L 362.51356 -468.652828 
L 363.922411 -465.331166 
L 365.331263 -462.304968 
L 366.740114 -459.560433 
L 368.148965 -457.082493 
L 369.557817 -454.855172 
L 370.966668 -452.861917 
L 372.375519 -451.085899 
L 373.784371 -449.51028 
L 375.193222 -448.11844 
L 376.602073 -446.894179 
L 378.010925 -445.821876 
L 379.419776 -444.886618 
L 380.828627 -444.074299 
L 382.237479 -443.371692 
L 383.64633 -442.766493 
L 385.055181 -442.247344 
L 386.464032 -441.803834 
L 386.464032 -439.554744 
L 386.464032 -439.554744 
L 385.055181 -439.554744 
L 383.64633 -439.554744 
L 382.237479 -439.554744 
L 380.828627 -439.554744 
L 379.419776 -439.554744 
L 378.010925 -439.554744 
L 376.602073 -439.554744 
L 375.193222 -439.554744 
L 373.784371 -439.554744 
L 372.375519 -439.554744 
L 370.966668 -439.554744 
L 369.557817 -439.554744 
L 368.148965 -439.554744 
L 366.740114 -439.554744 
L 365.331263 -439.554744 
L 363.922411 -439.554744 
L 362.51356 -439.554744 
L 361.104709 -439.554744 
L 359.695857 -439.554744 
L 358.287006 -439.554744 
L 356.878155 -439.554744 
L 355.469303 -439.554744 
L 354.060452 -439.554744 
L 352.651601 -439.554744 
L 351.24275 -439.554744 
L 349.833898 -439.554744 
L 348.425047 -439.554744 
L 347.016196 -439.554744 
L 345.607344 -439.554744 
L 344.198493 -439.554744 
L 342.789642 -439.554744 
L 341.38079 -439.554744 
L 339.971939 -439.554744 
L 338.563088 -439.554744 
L 337.154236 -439.554744 
L 335.745385 -439.554744 
L 334.336534 -439.554744 
L 332.927682 -439.554744 
L 331.518831 -439.554744 
L 330.10998 -439.554744 
L 328.701128 -439.554744 
L 327.292277 -439.554744 
L 325.883426 -439.554744 
L 324.474575 -439.554744 
L 323.065723 -439.554744 
L 321.656872 -439.554744 
L 320.248021 -439.554744 
L 318.839169 -439.554744 
L 317.430318 -439.554744 
L 316.021467 -439.554744 
L 314.612615 -439.554744 
L 313.203764 -439.554744 
L 311.794913 -439.554744 
L 310.386061 -439.554744 
L 308.97721 -439.554744 
L 307.568359 -439.554744 
L 306.159507 -439.554744 
L 304.750656 -439.554744 
L 303.341805 -439.554744 
L 301.932953 -439.554744 
L 300.524102 -439.554744 
L 299.115251 -439.554744 
L 297.7064 -439.554744 
L 296.297548 -439.554744 
L 294.888697 -439.554744 
L 293.479846 -439.554744 
L 292.070994 -439.554744 
L 290.662143 -439.554744 
L 289.253292 -439.554744 
L 287.84444 -439.554744 
L 286.435589 -439.554744 
L 285.026738 -439.554744 
L 283.617886 -439.554744 
L 282.209035 -439.554744 
L 280.800184 -439.554744 
L 279.391332 -439.554744 
L 277.982481 -439.554744 
L 276.57363 -439.554744 
L 275.164778 -439.554744 
L 273.755927 -439.554744 
L 272.347076 -439.554744 
L 270.938224 -439.554744 
L 269.529373 -439.554744 
L 268.120522 -439.554744 
L 266.711671 -439.554744 
L 265.302819 -439.554744 
L 263.893968 -439.554744 
L 262.485117 -439.554744 
L 261.076265 -439.554744 
L 259.667414 -439.554744 
L 258.258563 -439.554744 
L 256.849711 -439.554744 
L 255.44086 -439.554744 
L 254.032009 -439.554744 
L 252.623157 -439.554744 
L 251.214306 -439.554744 
L 249.805455 -439.554744 
L 248.396603 -439.554744 
L 246.987752 -439.554744 
z
" style="stroke: #4c72b0; stroke-width: 2"/>
    </defs>
    <g clip-path="url(#p06d1fcb2e3)">
     <use xlink:href="#mcbc1b69eb1" x="0" y="659.236562" style="fill: #4c72b0; stroke: #4c72b0; stroke-width: 2"/>
    </g>
   </g>
   <g id="PolyCollection_2"/>
   <g id="PolyCollection_3"/>
   <g id="line2d_1">
    <path d="M 246.987752 217.432729 
L 248.396603 216.989219 
L 249.805455 216.470069 
L 251.214306 215.864871 
L 252.623157 215.162264 
L 254.032009 214.349945 
L 255.44086 213.414686 
L 256.849711 212.342383 
L 258.258563 211.118123 
L 259.667414 209.726283 
L 261.076265 208.150663 
L 262.485117 206.374646 
L 263.893968 204.381391 
L 265.302819 202.154069 
L 266.711671 199.676129 
L 268.120522 196.931594 
L 269.529373 193.905396 
L 270.938224 190.583734 
L 272.347076 186.954461 
L 273.755927 183.00748 
L 275.164778 178.735163 
L 276.57363 174.132764 
L 277.982481 169.198825 
L 279.391332 163.935573 
L 280.800184 158.349279 
L 282.209035 152.450587 
L 283.617886 146.254786 
L 285.026738 139.78202 
L 286.435589 133.057429 
L 287.84444 126.111203 
L 289.253292 118.978547 
L 290.662143 111.699544 
L 292.070994 104.318921 
L 293.479846 96.885701 
L 294.888697 89.452757 
L 296.297548 82.076259 
L 297.7064 74.815025 
L 299.115251 67.729788 
L 300.524102 60.882379 
L 301.932953 54.334858 
L 303.341805 48.148589 
L 304.750656 42.3833 
L 306.159507 37.096126 
L 307.568359 32.340671 
L 308.97721 28.166108 
L 310.386061 24.616335 
L 311.794913 21.729202 
L 313.203764 19.535843 
L 314.612615 18.060119 
L 316.021467 17.318182 
L 317.430318 17.318182 
L 318.839169 18.060119 
L 320.248021 19.535843 
L 321.656872 21.729202 
L 323.065723 24.616335 
L 324.474575 28.166108 
L 325.883426 32.340671 
L 327.292277 37.096126 
L 328.701128 42.3833 
L 330.10998 48.148589 
L 331.518831 54.334858 
L 332.927682 60.882379 
L 334.336534 67.729788 
L 335.745385 74.815025 
L 337.154236 82.076259 
L 338.563088 89.452757 
L 339.971939 96.885701 
L 341.38079 104.318921 
L 342.789642 111.699544 
L 344.198493 118.978547 
L 345.607344 126.111203 
L 347.016196 133.057429 
L 348.425047 139.78202 
L 349.833898 146.254786 
L 351.24275 152.450587 
L 352.651601 158.349279 
L 354.060452 163.935573 
L 355.469303 169.198825 
L 356.878155 174.132764 
L 358.287006 178.735163 
L 359.695857 183.00748 
L 361.104709 186.954461 
L 362.51356 190.583734 
L 363.922411 193.905396 
L 365.331263 196.931594 
L 366.740114 199.676129 
L 368.148965 202.154069 
L 369.557817 204.381391 
L 370.966668 206.374646 
L 372.375519 208.150663 
L 373.784371 209.726283 
L 375.193222 211.118123 
L 376.602073 212.342383 
L 378.010925 213.414686 
L 379.419776 214.349945 
L 380.828627 215.162264 
L 382.237479 215.864871 
L 383.64633 216.470069 
L 385.055181 216.989219 
L 386.464032 217.432729 
" style="fill: none; stroke: #4c72b0; stroke-width: 1.5; stroke-linecap: round"/>
   </g>
   <g id="line2d_2">
    <path d="M 246.987752 217.432729 
L 248.396603 216.989219 
L 249.805455 216.470069 
L 251.214306 215.864871 
L 252.623157 215.162264 
L 254.032009 214.349945 
L 255.44086 213.414686 
L 256.849711 212.342383 
L 258.258563 211.118123 
L 259.667414 209.726283 
L 261.076265 208.150663 
L 262.485117 206.374646 
L 263.893968 204.381391 
L 265.302819 202.154069 
L 266.711671 199.676129 
L 268.120522 196.931594 
L 269.529373 193.905396 
L 270.938224 190.583734 
L 272.347076 186.954461 
L 273.755927 183.00748 
L 275.164778 178.735163 
L 276.57363 174.132764 
L 277.982481 169.198825 
L 279.391332 163.935573 
L 280.800184 158.349279 
L 282.209035 152.450587 
L 283.617886 146.254786 
L 285.026738 139.78202 
L 286.435589 133.057429 
L 287.84444 126.111203 
L 289.253292 118.978547 
L 290.662143 111.699544 
L 292.070994 104.318921 
L 293.479846 96.885701 
L 294.888697 89.452757 
L 296.297548 82.076259 
L 297.7064 74.815025 
L 299.115251 67.729788 
L 300.524102 60.882379 
L 301.932953 54.334858 
L 303.341805 48.148589 
L 304.750656 42.3833 
L 306.159507 37.096126 
L 307.568359 32.340671 
L 308.97721 28.166108 
L 310.386061 24.616335 
L 311.794913 21.729202 
L 313.203764 19.535843 
L 314.612615 18.060119 
L 316.021467 17.318182 
L 317.430318 17.318182 
L 318.839169 18.060119 
L 320.248021 19.535843 
L 321.656872 21.729202 
L 323.065723 24.616335 
L 324.474575 28.166108 
L 325.883426 32.340671 
L 327.292277 37.096126 
L 328.701128 42.3833 
L 330.10998 48.148589 
L 331.518831 54.334858 
L 332.927682 60.882379 
L 334.336534 67.729788 
L 335.745385 74.815025 
L 337.154236 82.076259 
L 338.563088 89.452757 
L 339.971939 96.885701 
L 341.38079 104.318921 
L 342.789642 111.699544 
L 344.198493 118.978547 
L 345.607344 126.111203 
L 347.016196 133.057429 
L 348.425047 139.78202 
L 349.833898 146.254786 
L 351.24275 152.450587 
L 352.651601 158.349279 
L 354.060452 163.935573 
L 355.469303 169.198825 
L 356.878155 174.132764 
L 358.287006 178.735163 
L 359.695857 183.00748 
L 361.104709 186.954461 
L 362.51356 190.583734 
L 363.922411 193.905396 
L 365.331263 196.931594 
L 366.740114 199.676129 
L 368.148965 202.154069 
L 369.557817 204.381391 
L 370.966668 206.374646 
L 372.375519 208.150663 
L 373.784371 209.726283 
L 375.193222 211.118123 
L 376.602073 212.342383 
L 378.010925 213.414686 
L 379.419776 214.349945 
L 380.828627 215.162264 
L 382.237479 215.864871 
L 383.64633 216.470069 
L 385.055181 216.989219 
L 386.464032 217.432729 
" style="fill: none; stroke: #ffffff; stroke-width: 3; stroke-linecap: round"/>
   </g>
   <g id="line2d_3">
    <path d="M 7.2 219.681818 
L 476.61375 219.681818 
" style="fill: none; stroke: #4c72b0; stroke-width: 2; stroke-linecap: round"/>
   </g>
  </g>
  <g id="axes_2">
   <g id="patch_3">
    <path d="M 7.2 318.84 
L 476.61375 318.84 
L 476.61375 96.24 
L 7.2 96.24 
L 7.2 318.84 
z
" style="fill: none"/>
   </g>
   <g id="matplotlib.axis_3">
    <g id="xtick_6"/>
    <g id="xtick_7"/>
    <g id="xtick_8"/>
    <g id="xtick_9"/>
    <g id="xtick_10"/>
   </g>
   <g id="matplotlib.axis_4"/>
   <g id="PolyCollection_4">
    <defs>
     <path id="m34491eee8f" d="M 171.181009 -350.514744 
L 171.181009 -351.797726 
L 173.650749 -352.050725 
L 176.120489 -352.346871 
L 178.590229 -352.692103 
L 181.05997 -353.092902 
L 183.52971 -353.556285 
L 185.99945 -354.089799 
L 188.469191 -354.701489 
L 190.938931 -355.399863 
L 193.408671 -356.193831 
L 195.878411 -357.092635 
L 198.348152 -358.105756 
L 200.817892 -359.242799 
L 203.287632 -360.513363 
L 205.757373 -361.926892 
L 208.227113 -363.492499 
L 210.696853 -365.218779 
L 213.166593 -367.113604 
L 215.636334 -369.183906 
L 218.106074 -371.435442 
L 220.575814 -373.872564 
L 223.045554 -376.497981 
L 225.515295 -379.312522 
L 227.985035 -382.314919 
L 230.454775 -385.501593 
L 232.924516 -388.866473 
L 235.394256 -392.400837 
L 237.863996 -396.093195 
L 240.333736 -399.929206 
L 242.803477 -403.891646 
L 245.273217 -407.960435 
L 247.742957 -412.112707 
L 250.212698 -416.322947 
L 252.682438 -420.563191 
L 255.152178 -424.803278 
L 257.621918 -429.011166 
L 260.091659 -433.153301 
L 262.561399 -437.19504 
L 265.031139 -441.101111 
L 267.500879 -444.836113 
L 269.97062 -448.36504 
L 272.44036 -451.653821 
L 274.9101 -454.669864 
L 277.379841 -457.38259 
L 279.849581 -459.763948 
L 282.319321 -461.788899 
L 284.789061 -463.435851 
L 287.258802 -464.687041 
L 289.728542 -465.528861 
L 292.198282 -465.952095 
L 294.668022 -465.952095 
L 297.137763 -465.528861 
L 299.607503 -464.687041 
L 302.077243 -463.435851 
L 304.546984 -461.788899 
L 307.016724 -459.763948 
L 309.486464 -457.38259 
L 311.956204 -454.669864 
L 314.425945 -451.653821 
L 316.895685 -448.36504 
L 319.365425 -444.836113 
L 321.835166 -441.101111 
L 324.304906 -437.19504 
L 326.774646 -433.153301 
L 329.244386 -429.011166 
L 331.714127 -424.803278 
L 334.183867 -420.563191 
L 336.653607 -416.322947 
L 339.123347 -412.112707 
L 341.593088 -407.960435 
L 344.062828 -403.891646 
L 346.532568 -399.929206 
L 349.002309 -396.093195 
L 351.472049 -392.400837 
L 353.941789 -388.866473 
L 356.411529 -385.501593 
L 358.88127 -382.314919 
L 361.35101 -379.312522 
L 363.82075 -376.497981 
L 366.290491 -373.872564 
L 368.760231 -371.435442 
L 371.229971 -369.183906 
L 373.699711 -367.113604 
L 376.169452 -365.218779 
L 378.639192 -363.492499 
L 381.108932 -361.926892 
L 383.578672 -360.513363 
L 386.048413 -359.242799 
L 388.518153 -358.105756 
L 390.987893 -357.092635 
L 393.457634 -356.193831 
L 395.927374 -355.399863 
L 398.397114 -354.701489 
L 400.866854 -354.089799 
L 403.336595 -353.556285 
L 405.806335 -353.092902 
L 408.276075 -352.692103 
L 410.745815 -352.346871 
L 413.215556 -352.050725 
L 415.685296 -351.797726 
L 415.685296 -350.514744 
L 415.685296 -350.514744 
L 413.215556 -350.514744 
L 410.745815 -350.514744 
L 408.276075 -350.514744 
L 405.806335 -350.514744 
L 403.336595 -350.514744 
L 400.866854 -350.514744 
L 398.397114 -350.514744 
L 395.927374 -350.514744 
L 393.457634 -350.514744 
L 390.987893 -350.514744 
L 388.518153 -350.514744 
L 386.048413 -350.514744 
L 383.578672 -350.514744 
L 381.108932 -350.514744 
L 378.639192 -350.514744 
L 376.169452 -350.514744 
L 373.699711 -350.514744 
L 371.229971 -350.514744 
L 368.760231 -350.514744 
L 366.290491 -350.514744 
L 363.82075 -350.514744 
L 361.35101 -350.514744 
L 358.88127 -350.514744 
L 356.411529 -350.514744 
L 353.941789 -350.514744 
L 351.472049 -350.514744 
L 349.002309 -350.514744 
L 346.532568 -350.514744 
L 344.062828 -350.514744 
L 341.593088 -350.514744 
L 339.123347 -350.514744 
L 336.653607 -350.514744 
L 334.183867 -350.514744 
L 331.714127 -350.514744 
L 329.244386 -350.514744 
L 326.774646 -350.514744 
L 324.304906 -350.514744 
L 321.835166 -350.514744 
L 319.365425 -350.514744 
L 316.895685 -350.514744 
L 314.425945 -350.514744 
L 311.956204 -350.514744 
L 309.486464 -350.514744 
L 307.016724 -350.514744 
L 304.546984 -350.514744 
L 302.077243 -350.514744 
L 299.607503 -350.514744 
L 297.137763 -350.514744 
L 294.668022 -350.514744 
L 292.198282 -350.514744 
L 289.728542 -350.514744 
L 287.258802 -350.514744 
L 284.789061 -350.514744 
L 282.319321 -350.514744 
L 279.849581 -350.514744 
L 277.379841 -350.514744 
L 274.9101 -350.514744 
L 272.44036 -350.514744 
L 269.97062 -350.514744 
L 267.500879 -350.514744 
L 265.031139 -350.514744 
L 262.561399 -350.514744 
L 260.091659 -350.514744 
L 257.621918 -350.514744 
L 255.152178 -350.514744 
L 252.682438 -350.514744 
L 250.212698 -350.514744 
L 247.742957 -350.514744 
L 245.273217 -350.514744 
L 242.803477 -350.514744 
L 240.333736 -350.514744 
L 237.863996 -350.514744 
L 235.394256 -350.514744 
L 232.924516 -350.514744 
L 230.454775 -350.514744 
L 227.985035 -350.514744 
L 225.515295 -350.514744 
L 223.045554 -350.514744 
L 220.575814 -350.514744 
L 218.106074 -350.514744 
L 215.636334 -350.514744 
L 213.166593 -350.514744 
L 210.696853 -350.514744 
L 208.227113 -350.514744 
L 205.757373 -350.514744 
L 203.287632 -350.514744 
L 200.817892 -350.514744 
L 198.348152 -350.514744 
L 195.878411 -350.514744 
L 193.408671 -350.514744 
L 190.938931 -350.514744 
L 188.469191 -350.514744 
L 185.99945 -350.514744 
L 183.52971 -350.514744 
L 181.05997 -350.514744 
L 178.590229 -350.514744 
L 176.120489 -350.514744 
L 173.650749 -350.514744 
L 171.181009 -350.514744 
z
" style="stroke: #dd8452; stroke-width: 2"/>
    </defs>
    <g clip-path="url(#pfe905f3103)">
     <use xlink:href="#m34491eee8f" x="0" y="659.236562" style="fill: #dd8452; stroke: #dd8452; stroke-width: 2"/>
    </g>
   </g>
   <g id="PolyCollection_5"/>
   <g id="PolyCollection_6"/>
   <g id="line2d_4">
    <path d="M 171.181009 307.438836 
L 173.650749 307.185838 
L 176.120489 306.889692 
L 178.590229 306.544459 
L 181.05997 306.14366 
L 183.52971 305.680277 
L 185.99945 305.146763 
L 188.469191 304.535073 
L 190.938931 303.8367 
L 193.408671 303.042732 
L 195.878411 302.143927 
L 198.348152 301.130806 
L 200.817892 299.993764 
L 203.287632 298.723199 
L 205.757373 297.30967 
L 208.227113 295.744064 
L 210.696853 294.017784 
L 213.166593 292.122958 
L 215.636334 290.052656 
L 218.106074 287.801121 
L 220.575814 285.363998 
L 223.045554 282.738582 
L 225.515295 279.924041 
L 227.985035 276.921644 
L 230.454775 273.73497 
L 232.924516 270.37009 
L 235.394256 266.835725 
L 237.863996 263.143367 
L 240.333736 259.307357 
L 242.803477 255.344916 
L 245.273217 251.276127 
L 247.742957 247.123856 
L 250.212698 242.913615 
L 252.682438 238.673371 
L 255.152178 234.433284 
L 257.621918 230.225397 
L 260.091659 226.083261 
L 262.561399 222.041522 
L 265.031139 218.135451 
L 267.500879 214.40045 
L 269.97062 210.871523 
L 272.44036 207.582742 
L 274.9101 204.566699 
L 277.379841 201.853973 
L 279.849581 199.472614 
L 282.319321 197.447663 
L 284.789061 195.800712 
L 287.258802 194.549521 
L 289.728542 193.707702 
L 292.198282 193.284467 
L 294.668022 193.284467 
L 297.137763 193.707702 
L 299.607503 194.549521 
L 302.077243 195.800712 
L 304.546984 197.447663 
L 307.016724 199.472614 
L 309.486464 201.853973 
L 311.956204 204.566699 
L 314.425945 207.582742 
L 316.895685 210.871523 
L 319.365425 214.40045 
L 321.835166 218.135451 
L 324.304906 222.041522 
L 326.774646 226.083261 
L 329.244386 230.225397 
L 331.714127 234.433284 
L 334.183867 238.673371 
L 336.653607 242.913615 
L 339.123347 247.123856 
L 341.593088 251.276127 
L 344.062828 255.344916 
L 346.532568 259.307357 
L 349.002309 263.143367 
L 351.472049 266.835725 
L 353.941789 270.37009 
L 356.411529 273.73497 
L 358.88127 276.921644 
L 361.35101 279.924041 
L 363.82075 282.738582 
L 366.290491 285.363998 
L 368.760231 287.801121 
L 371.229971 290.052656 
L 373.699711 292.122958 
L 376.169452 294.017784 
L 378.639192 295.744064 
L 381.108932 297.30967 
L 383.578672 298.723199 
L 386.048413 299.993764 
L 388.518153 301.130806 
L 390.987893 302.143927 
L 393.457634 303.042732 
L 395.927374 303.8367 
L 398.397114 304.535073 
L 400.866854 305.146763 
L 403.336595 305.680277 
L 405.806335 306.14366 
L 408.276075 306.544459 
L 410.745815 306.889692 
L 413.215556 307.185838 
L 415.685296 307.438836 
" style="fill: none; stroke: #dd8452; stroke-width: 1.5; stroke-linecap: round"/>
   </g>
   <g id="line2d_5">
    <path d="M 171.181009 307.438836 
L 173.650749 307.185838 
L 176.120489 306.889692 
L 178.590229 306.544459 
L 181.05997 306.14366 
L 183.52971 305.680277 
L 185.99945 305.146763 
L 188.469191 304.535073 
L 190.938931 303.8367 
L 193.408671 303.042732 
L 195.878411 302.143927 
L 198.348152 301.130806 
L 200.817892 299.993764 
L 203.287632 298.723199 
L 205.757373 297.30967 
L 208.227113 295.744064 
L 210.696853 294.017784 
L 213.166593 292.122958 
L 215.636334 290.052656 
L 218.106074 287.801121 
L 220.575814 285.363998 
L 223.045554 282.738582 
L 225.515295 279.924041 
L 227.985035 276.921644 
L 230.454775 273.73497 
L 232.924516 270.37009 
L 235.394256 266.835725 
L 237.863996 263.143367 
L 240.333736 259.307357 
L 242.803477 255.344916 
L 245.273217 251.276127 
L 247.742957 247.123856 
L 250.212698 242.913615 
L 252.682438 238.673371 
L 255.152178 234.433284 
L 257.621918 230.225397 
L 260.091659 226.083261 
L 262.561399 222.041522 
L 265.031139 218.135451 
L 267.500879 214.40045 
L 269.97062 210.871523 
L 272.44036 207.582742 
L 274.9101 204.566699 
L 277.379841 201.853973 
L 279.849581 199.472614 
L 282.319321 197.447663 
L 284.789061 195.800712 
L 287.258802 194.549521 
L 289.728542 193.707702 
L 292.198282 193.284467 
L 294.668022 193.284467 
L 297.137763 193.707702 
L 299.607503 194.549521 
L 302.077243 195.800712 
L 304.546984 197.447663 
L 307.016724 199.472614 
L 309.486464 201.853973 
L 311.956204 204.566699 
L 314.425945 207.582742 
L 316.895685 210.871523 
L 319.365425 214.40045 
L 321.835166 218.135451 
L 324.304906 222.041522 
L 326.774646 226.083261 
L 329.244386 230.225397 
L 331.714127 234.433284 
L 334.183867 238.673371 
L 336.653607 242.913615 
L 339.123347 247.123856 
L 341.593088 251.276127 
L 344.062828 255.344916 
L 346.532568 259.307357 
L 349.002309 263.143367 
L 351.472049 266.835725 
L 353.941789 270.37009 
L 356.411529 273.73497 
L 358.88127 276.921644 
L 361.35101 279.924041 
L 363.82075 282.738582 
L 366.290491 285.363998 
L 368.760231 287.801121 
L 371.229971 290.052656 
L 373.699711 292.122958 
L 376.169452 294.017784 
L 378.639192 295.744064 
L 381.108932 297.30967 
L 383.578672 298.723199 
L 386.048413 299.993764 
L 388.518153 301.130806 
L 390.987893 302.143927 
L 393.457634 303.042732 
L 395.927374 303.8367 
L 398.397114 304.535073 
L 400.866854 305.146763 
L 403.336595 305.680277 
L 405.806335 306.14366 
L 408.276075 306.544459 
L 410.745815 306.889692 
L 413.215556 307.185838 
L 415.685296 307.438836 
" style="fill: none; stroke: #ffffff; stroke-width: 3; stroke-linecap: round"/>
   </g>
   <g id="line2d_6">
    <path d="M 7.2 308.721818 
L 476.61375 308.721818 
" style="fill: none; stroke: #dd8452; stroke-width: 2; stroke-linecap: round"/>
   </g>
  </g>
  <g id="axes_3">
   <g id="patch_4">
    <path d="M 7.2 407.88 
L 476.61375 407.88 
L 476.61375 185.28 
L 7.2 185.28 
L 7.2 407.88 
z
" style="fill: none"/>
   </g>
   <g id="matplotlib.axis_5">
    <g id="xtick_11"/>
    <g id="xtick_12"/>
    <g id="xtick_13"/>
    <g id="xtick_14"/>
    <g id="xtick_15"/>
   </g>
   <g id="matplotlib.axis_6"/>
   <g id="PolyCollection_7">
    <defs>
     <path id="m9b8e9f5ba9" d="M 28.536989 -261.474744 
L 28.536989 -263.69452 
L 29.964445 -264.13225 
L 31.391901 -264.644633 
L 32.819357 -265.241944 
L 34.246813 -265.935393 
L 35.674268 -266.737125 
L 37.101724 -267.660194 
L 38.52918 -268.718521 
L 39.956636 -269.926826 
L 41.384092 -271.300525 
L 42.811548 -272.855609 
L 44.239004 -274.608479 
L 45.66646 -276.575755 
L 47.093916 -278.774046 
L 48.521372 -281.21969 
L 49.948828 -283.928455 
L 51.376284 -286.915211 
L 52.80374 -290.19358 
L 54.231196 -293.775552 
L 55.658652 -297.67109 
L 57.086108 -301.887723 
L 58.513564 -306.430138 
L 59.94102 -311.29977 
L 61.368476 -316.494425 
L 62.795932 -322.00791 
L 64.223388 -327.829721 
L 65.650844 -333.94477 
L 67.0783 -340.333174 
L 68.505756 -346.97012 
L 69.933212 -353.825813 
L 71.360668 -360.865506 
L 72.788124 -368.049638 
L 74.21558 -375.334067 
L 75.643036 -382.670406 
L 77.070492 -390.006473 
L 78.497948 -397.286831 
L 79.925404 -404.453425 
L 81.35286 -411.446318 
L 82.780316 -418.204481 
L 84.207772 -424.666666 
L 85.635228 -430.772306 
L 87.062683 -436.462453 
L 88.490139 -441.680718 
L 89.917595 -446.374193 
L 91.345051 -450.494346 
L 92.772507 -453.997854 
L 94.199963 -456.847358 
L 95.627419 -459.01213 
L 97.054875 -460.46862 
L 98.482331 -461.200887 
L 99.909787 -461.200887 
L 101.337243 -460.46862 
L 102.764699 -459.01213 
L 104.192155 -456.847358 
L 105.619611 -453.997854 
L 107.047067 -450.494346 
L 108.474523 -446.374193 
L 109.901979 -441.680718 
L 111.329435 -436.462453 
L 112.756891 -430.772306 
L 114.184347 -424.666666 
L 115.611803 -418.204481 
L 117.039259 -411.446318 
L 118.466715 -404.453425 
L 119.894171 -397.286831 
L 121.321627 -390.006473 
L 122.749083 -382.670406 
L 124.176539 -375.334067 
L 125.603995 -368.049638 
L 127.031451 -360.865506 
L 128.458907 -353.825813 
L 129.886363 -346.97012 
L 131.313819 -340.333174 
L 132.741275 -333.94477 
L 134.168731 -327.829721 
L 135.596187 -322.00791 
L 137.023643 -316.494425 
L 138.451098 -311.29977 
L 139.878554 -306.430138 
L 141.30601 -301.887723 
L 142.733466 -297.67109 
L 144.160922 -293.775552 
L 145.588378 -290.19358 
L 147.015834 -286.915211 
L 148.44329 -283.928455 
L 149.870746 -281.21969 
L 151.298202 -278.774046 
L 152.725658 -276.575755 
L 154.153114 -274.608479 
L 155.58057 -272.855609 
L 157.008026 -271.300525 
L 158.435482 -269.926826 
L 159.862938 -268.718521 
L 161.290394 -267.660194 
L 162.71785 -266.737125 
L 164.145306 -265.935393 
L 165.572762 -265.241944 
L 167.000218 -264.644633 
L 168.427674 -264.13225 
L 169.85513 -263.69452 
L 169.85513 -261.474744 
L 169.85513 -261.474744 
L 168.427674 -261.474744 
L 167.000218 -261.474744 
L 165.572762 -261.474744 
L 164.145306 -261.474744 
L 162.71785 -261.474744 
L 161.290394 -261.474744 
L 159.862938 -261.474744 
L 158.435482 -261.474744 
L 157.008026 -261.474744 
L 155.58057 -261.474744 
L 154.153114 -261.474744 
L 152.725658 -261.474744 
L 151.298202 -261.474744 
L 149.870746 -261.474744 
L 148.44329 -261.474744 
L 147.015834 -261.474744 
L 145.588378 -261.474744 
L 144.160922 -261.474744 
L 142.733466 -261.474744 
L 141.30601 -261.474744 
L 139.878554 -261.474744 
L 138.451098 -261.474744 
L 137.023643 -261.474744 
L 135.596187 -261.474744 
L 134.168731 -261.474744 
L 132.741275 -261.474744 
L 131.313819 -261.474744 
L 129.886363 -261.474744 
L 128.458907 -261.474744 
L 127.031451 -261.474744 
L 125.603995 -261.474744 
L 124.176539 -261.474744 
L 122.749083 -261.474744 
L 121.321627 -261.474744 
L 119.894171 -261.474744 
L 118.466715 -261.474744 
L 117.039259 -261.474744 
L 115.611803 -261.474744 
L 114.184347 -261.474744 
L 112.756891 -261.474744 
L 111.329435 -261.474744 
L 109.901979 -261.474744 
L 108.474523 -261.474744 
L 107.047067 -261.474744 
L 105.619611 -261.474744 
L 104.192155 -261.474744 
L 102.764699 -261.474744 
L 101.337243 -261.474744 
L 99.909787 -261.474744 
L 98.482331 -261.474744 
L 97.054875 -261.474744 
L 95.627419 -261.474744 
L 94.199963 -261.474744 
L 92.772507 -261.474744 
L 91.345051 -261.474744 
L 89.917595 -261.474744 
L 88.490139 -261.474744 
L 87.062683 -261.474744 
L 85.635228 -261.474744 
L 84.207772 -261.474744 
L 82.780316 -261.474744 
L 81.35286 -261.474744 
L 79.925404 -261.474744 
L 78.497948 -261.474744 
L 77.070492 -261.474744 
L 75.643036 -261.474744 
L 74.21558 -261.474744 
L 72.788124 -261.474744 
L 71.360668 -261.474744 
L 69.933212 -261.474744 
L 68.505756 -261.474744 
L 67.0783 -261.474744 
L 65.650844 -261.474744 
L 64.223388 -261.474744 
L 62.795932 -261.474744 
L 61.368476 -261.474744 
L 59.94102 -261.474744 
L 58.513564 -261.474744 
L 57.086108 -261.474744 
L 55.658652 -261.474744 
L 54.231196 -261.474744 
L 52.80374 -261.474744 
L 51.376284 -261.474744 
L 49.948828 -261.474744 
L 48.521372 -261.474744 
L 47.093916 -261.474744 
L 45.66646 -261.474744 
L 44.239004 -261.474744 
L 42.811548 -261.474744 
L 41.384092 -261.474744 
L 39.956636 -261.474744 
L 38.52918 -261.474744 
L 37.101724 -261.474744 
L 35.674268 -261.474744 
L 34.246813 -261.474744 
L 32.819357 -261.474744 
L 31.391901 -261.474744 
L 29.964445 -261.474744 
L 28.536989 -261.474744 
z
" style="stroke: #55a868; stroke-width: 2"/>
    </defs>
    <g clip-path="url(#pc8b6f430c7)">
     <use xlink:href="#m9b8e9f5ba9" x="0" y="659.236562" style="fill: #55a868; stroke: #55a868; stroke-width: 2"/>
    </g>
   </g>
   <g id="PolyCollection_8"/>
   <g id="PolyCollection_9"/>
   <g id="line2d_7">
    <path d="M 28.536989 395.542042 
L 29.964445 395.104313 
L 31.391901 394.59193 
L 32.819357 393.994619 
L 34.246813 393.301169 
L 35.674268 392.499438 
L 37.101724 391.576369 
L 38.52918 390.518041 
L 39.956636 389.309737 
L 41.384092 387.936038 
L 42.811548 386.380954 
L 44.239004 384.628084 
L 45.66646 382.660808 
L 47.093916 380.462516 
L 48.521372 378.016872 
L 49.948828 375.308108 
L 51.376284 372.321352 
L 52.80374 369.042982 
L 54.231196 365.461011 
L 55.658652 361.565473 
L 57.086108 357.348839 
L 58.513564 352.806425 
L 59.94102 347.936792 
L 61.368476 342.742138 
L 62.795932 337.228653 
L 64.223388 331.406841 
L 65.650844 325.291792 
L 67.0783 318.903389 
L 68.505756 312.266442 
L 69.933212 305.410749 
L 71.360668 298.371056 
L 72.788124 291.186924 
L 74.21558 283.902496 
L 75.643036 276.566156 
L 77.070492 269.230089 
L 78.497948 261.949732 
L 79.925404 254.783137 
L 81.35286 247.790245 
L 82.780316 241.032081 
L 84.207772 234.569897 
L 85.635228 228.464257 
L 87.062683 222.774109 
L 88.490139 217.555845 
L 89.917595 212.86237 
L 91.345051 208.742216 
L 92.772507 205.238708 
L 94.199963 202.389204 
L 95.627419 200.224433 
L 97.054875 198.767943 
L 98.482331 198.035675 
L 99.909787 198.035675 
L 101.337243 198.767943 
L 102.764699 200.224433 
L 104.192155 202.389204 
L 105.619611 205.238708 
L 107.047067 208.742216 
L 108.474523 212.86237 
L 109.901979 217.555845 
L 111.329435 222.774109 
L 112.756891 228.464257 
L 114.184347 234.569897 
L 115.611803 241.032081 
L 117.039259 247.790245 
L 118.466715 254.783137 
L 119.894171 261.949732 
L 121.321627 269.230089 
L 122.749083 276.566156 
L 124.176539 283.902496 
L 125.603995 291.186924 
L 127.031451 298.371056 
L 128.458907 305.410749 
L 129.886363 312.266442 
L 131.313819 318.903389 
L 132.741275 325.291792 
L 134.168731 331.406841 
L 135.596187 337.228653 
L 137.023643 342.742138 
L 138.451098 347.936792 
L 139.878554 352.806425 
L 141.30601 357.348839 
L 142.733466 361.565473 
L 144.160922 365.461011 
L 145.588378 369.042982 
L 147.015834 372.321352 
L 148.44329 375.308108 
L 149.870746 378.016872 
L 151.298202 380.462516 
L 152.725658 382.660808 
L 154.153114 384.628084 
L 155.58057 386.380954 
L 157.008026 387.936038 
L 158.435482 389.309737 
L 159.862938 390.518041 
L 161.290394 391.576369 
L 162.71785 392.499438 
L 164.145306 393.301169 
L 165.572762 393.994619 
L 167.000218 394.59193 
L 168.427674 395.104313 
L 169.85513 395.542042 
" style="fill: none; stroke: #55a868; stroke-width: 1.5; stroke-linecap: round"/>
   </g>
   <g id="line2d_8">
    <path d="M 28.536989 395.542042 
L 29.964445 395.104313 
L 31.391901 394.59193 
L 32.819357 393.994619 
L 34.246813 393.301169 
L 35.674268 392.499438 
L 37.101724 391.576369 
L 38.52918 390.518041 
L 39.956636 389.309737 
L 41.384092 387.936038 
L 42.811548 386.380954 
L 44.239004 384.628084 
L 45.66646 382.660808 
L 47.093916 380.462516 
L 48.521372 378.016872 
L 49.948828 375.308108 
L 51.376284 372.321352 
L 52.80374 369.042982 
L 54.231196 365.461011 
L 55.658652 361.565473 
L 57.086108 357.348839 
L 58.513564 352.806425 
L 59.94102 347.936792 
L 61.368476 342.742138 
L 62.795932 337.228653 
L 64.223388 331.406841 
L 65.650844 325.291792 
L 67.0783 318.903389 
L 68.505756 312.266442 
L 69.933212 305.410749 
L 71.360668 298.371056 
L 72.788124 291.186924 
L 74.21558 283.902496 
L 75.643036 276.566156 
L 77.070492 269.230089 
L 78.497948 261.949732 
L 79.925404 254.783137 
L 81.35286 247.790245 
L 82.780316 241.032081 
L 84.207772 234.569897 
L 85.635228 228.464257 
L 87.062683 222.774109 
L 88.490139 217.555845 
L 89.917595 212.86237 
L 91.345051 208.742216 
L 92.772507 205.238708 
L 94.199963 202.389204 
L 95.627419 200.224433 
L 97.054875 198.767943 
L 98.482331 198.035675 
L 99.909787 198.035675 
L 101.337243 198.767943 
L 102.764699 200.224433 
L 104.192155 202.389204 
L 105.619611 205.238708 
L 107.047067 208.742216 
L 108.474523 212.86237 
L 109.901979 217.555845 
L 111.329435 222.774109 
L 112.756891 228.464257 
L 114.184347 234.569897 
L 115.611803 241.032081 
L 117.039259 247.790245 
L 118.466715 254.783137 
L 119.894171 261.949732 
L 121.321627 269.230089 
L 122.749083 276.566156 
L 124.176539 283.902496 
L 125.603995 291.186924 
L 127.031451 298.371056 
L 128.458907 305.410749 
L 129.886363 312.266442 
L 131.313819 318.903389 
L 132.741275 325.291792 
L 134.168731 331.406841 
L 135.596187 337.228653 
L 137.023643 342.742138 
L 138.451098 347.936792 
L 139.878554 352.806425 
L 141.30601 357.348839 
L 142.733466 361.565473 
L 144.160922 365.461011 
L 145.588378 369.042982 
L 147.015834 372.321352 
L 148.44329 375.308108 
L 149.870746 378.016872 
L 151.298202 380.462516 
L 152.725658 382.660808 
L 154.153114 384.628084 
L 155.58057 386.380954 
L 157.008026 387.936038 
L 158.435482 389.309737 
L 159.862938 390.518041 
L 161.290394 391.576369 
L 162.71785 392.499438 
L 164.145306 393.301169 
L 165.572762 393.994619 
L 167.000218 394.59193 
L 168.427674 395.104313 
L 169.85513 395.542042 
" style="fill: none; stroke: #ffffff; stroke-width: 3; stroke-linecap: round"/>
   </g>
   <g id="line2d_9">
    <path d="M 7.2 397.761818 
L 476.61375 397.761818 
" style="fill: none; stroke: #55a868; stroke-width: 2; stroke-linecap: round"/>
   </g>
  </g>
  <g id="axes_4">
   <g id="patch_5">
    <path d="M 7.2 496.92 
L 476.61375 496.92 
L 476.61375 274.32 
L 7.2 274.32 
L 7.2 496.92 
z
" style="fill: none"/>
   </g>
   <g id="matplotlib.axis_7">
    <g id="xtick_16"/>
    <g id="xtick_17"/>
    <g id="xtick_18"/>
    <g id="xtick_19"/>
    <g id="xtick_20"/>
   </g>
   <g id="matplotlib.axis_8"/>
   <g id="PolyCollection_10">
    <defs>
     <path id="md2ea218b3d" d="M 59.262248 -172.434744 
L 59.262248 -173.874684 
L 61.46278 -174.158633 
L 63.663312 -174.491009 
L 65.863844 -174.878477 
L 68.064376 -175.328308 
L 70.264908 -175.848381 
L 72.46544 -176.447163 
L 74.665972 -177.133686 
L 76.866504 -177.917497 
L 79.067036 -178.808598 
L 81.267568 -179.81736 
L 83.4681 -180.954424 
L 85.668633 -182.23057 
L 87.869165 -183.656572 
L 90.069697 -185.243029 
L 92.270229 -187.000169 
L 94.470761 -188.937638 
L 96.671293 -191.064273 
L 98.871825 -193.38785 
L 101.072357 -195.914834 
L 103.272889 -198.650108 
L 105.473421 -201.596712 
L 107.673953 -204.755579 
L 109.874485 -208.125282 
L 112.075017 -211.701807 
L 114.275549 -215.478339 
L 116.476081 -219.44509 
L 118.676613 -223.589163 
L 120.877145 -227.894462 
L 123.077677 -232.341659 
L 125.278209 -236.908215 
L 127.478741 -241.568466 
L 129.679273 -246.293778 
L 131.879805 -251.052764 
L 134.080337 -255.811574 
L 136.280869 -260.534245 
L 138.481401 -265.18312 
L 140.681933 -269.719317 
L 142.882465 -274.103248 
L 145.082997 -278.295182 
L 147.283529 -282.255829 
L 149.484061 -285.946953 
L 151.684593 -289.331972 
L 153.885125 -292.376567 
L 156.085658 -295.049256 
L 158.28619 -297.321935 
L 160.486722 -299.17037 
L 162.687254 -300.574629 
L 164.887786 -301.519435 
L 167.088318 -301.994447 
L 169.28885 -301.994447 
L 171.489382 -301.519435 
L 173.689914 -300.574629 
L 175.890446 -299.17037 
L 178.090978 -297.321935 
L 180.29151 -295.049256 
L 182.492042 -292.376567 
L 184.692574 -289.331972 
L 186.893106 -285.946953 
L 189.093638 -282.255829 
L 191.29417 -278.295182 
L 193.494702 -274.103248 
L 195.695234 -269.719317 
L 197.895766 -265.18312 
L 200.096298 -260.534245 
L 202.29683 -255.811574 
L 204.497362 -251.052764 
L 206.697894 -246.293778 
L 208.898426 -241.568466 
L 211.098958 -236.908215 
L 213.29949 -232.341659 
L 215.500022 -227.894462 
L 217.700554 -223.589163 
L 219.901086 -219.44509 
L 222.101618 -215.478339 
L 224.30215 -211.701807 
L 226.502683 -208.125282 
L 228.703215 -204.755579 
L 230.903747 -201.596712 
L 233.104279 -198.650108 
L 235.304811 -195.914834 
L 237.505343 -193.38785 
L 239.705875 -191.064273 
L 241.906407 -188.937638 
L 244.106939 -187.000169 
L 246.307471 -185.243029 
L 248.508003 -183.656572 
L 250.708535 -182.23057 
L 252.909067 -180.954424 
L 255.109599 -179.81736 
L 257.310131 -178.808598 
L 259.510663 -177.917497 
L 261.711195 -177.133686 
L 263.911727 -176.447163 
L 266.112259 -175.848381 
L 268.312791 -175.328308 
L 270.513323 -174.878477 
L 272.713855 -174.491009 
L 274.914387 -174.158633 
L 277.114919 -173.874684 
L 277.114919 -172.434744 
L 277.114919 -172.434744 
L 274.914387 -172.434744 
L 272.713855 -172.434744 
L 270.513323 -172.434744 
L 268.312791 -172.434744 
L 266.112259 -172.434744 
L 263.911727 -172.434744 
L 261.711195 -172.434744 
L 259.510663 -172.434744 
L 257.310131 -172.434744 
L 255.109599 -172.434744 
L 252.909067 -172.434744 
L 250.708535 -172.434744 
L 248.508003 -172.434744 
L 246.307471 -172.434744 
L 244.106939 -172.434744 
L 241.906407 -172.434744 
L 239.705875 -172.434744 
L 237.505343 -172.434744 
L 235.304811 -172.434744 
L 233.104279 -172.434744 
L 230.903747 -172.434744 
L 228.703215 -172.434744 
L 226.502683 -172.434744 
L 224.30215 -172.434744 
L 222.101618 -172.434744 
L 219.901086 -172.434744 
L 217.700554 -172.434744 
L 215.500022 -172.434744 
L 213.29949 -172.434744 
L 211.098958 -172.434744 
L 208.898426 -172.434744 
L 206.697894 -172.434744 
L 204.497362 -172.434744 
L 202.29683 -172.434744 
L 200.096298 -172.434744 
L 197.895766 -172.434744 
L 195.695234 -172.434744 
L 193.494702 -172.434744 
L 191.29417 -172.434744 
L 189.093638 -172.434744 
L 186.893106 -172.434744 
L 184.692574 -172.434744 
L 182.492042 -172.434744 
L 180.29151 -172.434744 
L 178.090978 -172.434744 
L 175.890446 -172.434744 
L 173.689914 -172.434744 
L 171.489382 -172.434744 
L 169.28885 -172.434744 
L 167.088318 -172.434744 
L 164.887786 -172.434744 
L 162.687254 -172.434744 
L 160.486722 -172.434744 
L 158.28619 -172.434744 
L 156.085658 -172.434744 
L 153.885125 -172.434744 
L 151.684593 -172.434744 
L 149.484061 -172.434744 
L 147.283529 -172.434744 
L 145.082997 -172.434744 
L 142.882465 -172.434744 
L 140.681933 -172.434744 
L 138.481401 -172.434744 
L 136.280869 -172.434744 
L 134.080337 -172.434744 
L 131.879805 -172.434744 
L 129.679273 -172.434744 
L 127.478741 -172.434744 
L 125.278209 -172.434744 
L 123.077677 -172.434744 
L 120.877145 -172.434744 
L 118.676613 -172.434744 
L 116.476081 -172.434744 
L 114.275549 -172.434744 
L 112.075017 -172.434744 
L 109.874485 -172.434744 
L 107.673953 -172.434744 
L 105.473421 -172.434744 
L 103.272889 -172.434744 
L 101.072357 -172.434744 
L 98.871825 -172.434744 
L 96.671293 -172.434744 
L 94.470761 -172.434744 
L 92.270229 -172.434744 
L 90.069697 -172.434744 
L 87.869165 -172.434744 
L 85.668633 -172.434744 
L 83.4681 -172.434744 
L 81.267568 -172.434744 
L 79.067036 -172.434744 
L 76.866504 -172.434744 
L 74.665972 -172.434744 
L 72.46544 -172.434744 
L 70.264908 -172.434744 
L 68.064376 -172.434744 
L 65.863844 -172.434744 
L 63.663312 -172.434744 
L 61.46278 -172.434744 
L 59.262248 -172.434744 
z
" style="stroke: #c44e52; stroke-width: 2"/>
    </defs>
    <g clip-path="url(#pbc24f4dbf4)">
     <use xlink:href="#md2ea218b3d" x="0" y="659.236562" style="fill: #c44e52; stroke: #c44e52; stroke-width: 2"/>
    </g>
   </g>
   <g id="PolyCollection_11"/>
   <g id="PolyCollection_12"/>
   <g id="line2d_10">
    <path d="M 59.262248 485.361879 
L 61.46278 485.07793 
L 63.663312 484.745553 
L 65.863844 484.358086 
L 68.064376 483.908254 
L 70.264908 483.388182 
L 72.46544 482.789399 
L 74.665972 482.102876 
L 76.866504 481.319065 
L 79.067036 480.427965 
L 81.267568 479.419202 
L 83.4681 478.282139 
L 85.668633 477.005993 
L 87.869165 475.57999 
L 90.069697 473.993533 
L 92.270229 472.236394 
L 94.470761 470.298925 
L 96.671293 468.17229 
L 98.871825 465.848712 
L 101.072357 463.321728 
L 103.272889 460.586454 
L 105.473421 457.63985 
L 107.673953 454.480984 
L 109.874485 451.111281 
L 112.075017 447.534756 
L 114.275549 443.758224 
L 116.476081 439.791473 
L 118.676613 435.6474 
L 120.877145 431.3421 
L 123.077677 426.894903 
L 125.278209 422.328348 
L 127.478741 417.668096 
L 129.679273 412.942784 
L 131.879805 408.183798 
L 134.080337 403.424989 
L 136.280869 398.702317 
L 138.481401 394.053442 
L 140.681933 389.517246 
L 142.882465 385.133315 
L 145.082997 380.941381 
L 147.283529 376.980733 
L 149.484061 373.28961 
L 151.684593 369.904591 
L 153.885125 366.859996 
L 156.085658 364.187307 
L 158.28619 361.914628 
L 160.486722 360.066192 
L 162.687254 358.661934 
L 164.887786 357.717128 
L 167.088318 357.242116 
L 169.28885 357.242116 
L 171.489382 357.717128 
L 173.689914 358.661934 
L 175.890446 360.066192 
L 178.090978 361.914628 
L 180.29151 364.187307 
L 182.492042 366.859996 
L 184.692574 369.904591 
L 186.893106 373.28961 
L 189.093638 376.980733 
L 191.29417 380.941381 
L 193.494702 385.133315 
L 195.695234 389.517246 
L 197.895766 394.053442 
L 200.096298 398.702317 
L 202.29683 403.424989 
L 204.497362 408.183798 
L 206.697894 412.942784 
L 208.898426 417.668096 
L 211.098958 422.328348 
L 213.29949 426.894903 
L 215.500022 431.3421 
L 217.700554 435.6474 
L 219.901086 439.791473 
L 222.101618 443.758224 
L 224.30215 447.534756 
L 226.502683 451.111281 
L 228.703215 454.480984 
L 230.903747 457.63985 
L 233.104279 460.586454 
L 235.304811 463.321728 
L 237.505343 465.848712 
L 239.705875 468.17229 
L 241.906407 470.298925 
L 244.106939 472.236394 
L 246.307471 473.993533 
L 248.508003 475.57999 
L 250.708535 477.005993 
L 252.909067 478.282139 
L 255.109599 479.419202 
L 257.310131 480.427965 
L 259.510663 481.319065 
L 261.711195 482.102876 
L 263.911727 482.789399 
L 266.112259 483.388182 
L 268.312791 483.908254 
L 270.513323 484.358086 
L 272.713855 484.745553 
L 274.914387 485.07793 
L 277.114919 485.361879 
" style="fill: none; stroke: #c44e52; stroke-width: 1.5; stroke-linecap: round"/>
   </g>
   <g id="line2d_11">
    <path d="M 59.262248 485.361879 
L 61.46278 485.07793 
L 63.663312 484.745553 
L 65.863844 484.358086 
L 68.064376 483.908254 
L 70.264908 483.388182 
L 72.46544 482.789399 
L 74.665972 482.102876 
L 76.866504 481.319065 
L 79.067036 480.427965 
L 81.267568 479.419202 
L 83.4681 478.282139 
L 85.668633 477.005993 
L 87.869165 475.57999 
L 90.069697 473.993533 
L 92.270229 472.236394 
L 94.470761 470.298925 
L 96.671293 468.17229 
L 98.871825 465.848712 
L 101.072357 463.321728 
L 103.272889 460.586454 
L 105.473421 457.63985 
L 107.673953 454.480984 
L 109.874485 451.111281 
L 112.075017 447.534756 
L 114.275549 443.758224 
L 116.476081 439.791473 
L 118.676613 435.6474 
L 120.877145 431.3421 
L 123.077677 426.894903 
L 125.278209 422.328348 
L 127.478741 417.668096 
L 129.679273 412.942784 
L 131.879805 408.183798 
L 134.080337 403.424989 
L 136.280869 398.702317 
L 138.481401 394.053442 
L 140.681933 389.517246 
L 142.882465 385.133315 
L 145.082997 380.941381 
L 147.283529 376.980733 
L 149.484061 373.28961 
L 151.684593 369.904591 
L 153.885125 366.859996 
L 156.085658 364.187307 
L 158.28619 361.914628 
L 160.486722 360.066192 
L 162.687254 358.661934 
L 164.887786 357.717128 
L 167.088318 357.242116 
L 169.28885 357.242116 
L 171.489382 357.717128 
L 173.689914 358.661934 
L 175.890446 360.066192 
L 178.090978 361.914628 
L 180.29151 364.187307 
L 182.492042 366.859996 
L 184.692574 369.904591 
L 186.893106 373.28961 
L 189.093638 376.980733 
L 191.29417 380.941381 
L 193.494702 385.133315 
L 195.695234 389.517246 
L 197.895766 394.053442 
L 200.096298 398.702317 
L 202.29683 403.424989 
L 204.497362 408.183798 
L 206.697894 412.942784 
L 208.898426 417.668096 
L 211.098958 422.328348 
L 213.29949 426.894903 
L 215.500022 431.3421 
L 217.700554 435.6474 
L 219.901086 439.791473 
L 222.101618 443.758224 
L 224.30215 447.534756 
L 226.502683 451.111281 
L 228.703215 454.480984 
L 230.903747 457.63985 
L 233.104279 460.586454 
L 235.304811 463.321728 
L 237.505343 465.848712 
L 239.705875 468.17229 
L 241.906407 470.298925 
L 244.106939 472.236394 
L 246.307471 473.993533 
L 248.508003 475.57999 
L 250.708535 477.005993 
L 252.909067 478.282139 
L 255.109599 479.419202 
L 257.310131 480.427965 
L 259.510663 481.319065 
L 261.711195 482.102876 
L 263.911727 482.789399 
L 266.112259 483.388182 
L 268.312791 483.908254 
L 270.513323 484.358086 
L 272.713855 484.745553 
L 274.914387 485.07793 
L 277.114919 485.361879 
" style="fill: none; stroke: #ffffff; stroke-width: 3; stroke-linecap: round"/>
   </g>
   <g id="line2d_12">
    <path d="M 7.2 486.801818 
L 476.61375 486.801818 
" style="fill: none; stroke: #c44e52; stroke-width: 2; stroke-linecap: round"/>
   </g>
  </g>
  <g id="axes_5">
   <g id="patch_6">
    <path d="M 7.2 585.96 
L 476.61375 585.96 
L 476.61375 363.36 
L 7.2 363.36 
L 7.2 585.96 
z
" style="fill: none"/>
   </g>
   <g id="matplotlib.axis_9">
    <g id="xtick_21">
     <g id="text_1">
      <!-- 1 -->
      <g style="fill: #262626" transform="translate(25.158036 617.96) scale(0.22 -0.22)">
       <defs>
        <path id="FiraSans-Regular-31" d="M 2067 4282 
L 2067 0 
L 1478 0 
L 1478 3654 
L 480 3046 
L 224 3462 
L 1549 4282 
L 2067 4282 
z
" transform="scale(0.015625)"/>
       </defs>
       <use xlink:href="#FiraSans-Regular-31"/>
      </g>
     </g>
    </g>
    <g id="xtick_22">
     <g id="text_2">
      <!-- 2 -->
      <g style="fill: #262626" transform="translate(127.400922 617.96) scale(0.22 -0.22)">
       <defs>
        <path id="FiraSans-Regular-32" d="M 1459 4346 
Q 1843 4346 2134 4192 
Q 2426 4038 2586 3772 
Q 2746 3507 2746 3174 
Q 2746 2784 2570 2425 
Q 2394 2067 2029 1651 
Q 1664 1235 922 493 
L 2848 493 
L 2778 0 
L 250 0 
L 250 467 
Q 1107 1357 1465 1769 
Q 1824 2182 1977 2489 
Q 2131 2797 2131 3149 
Q 2131 3482 1939 3670 
Q 1747 3859 1427 3859 
Q 1165 3859 966 3750 
Q 768 3642 544 3392 
L 160 3699 
Q 422 4026 742 4186 
Q 1062 4346 1459 4346 
z
" transform="scale(0.015625)"/>
       </defs>
       <use xlink:href="#FiraSans-Regular-32"/>
      </g>
     </g>
    </g>
    <g id="xtick_23">
     <g id="text_3">
      <!-- 3 -->
      <g style="fill: #262626" transform="translate(230.281464 617.96) scale(0.22 -0.22)">
       <defs>
        <path id="FiraSans-Regular-33" d="M 1440 4346 
Q 1837 4346 2121 4198 
Q 2406 4051 2556 3801 
Q 2707 3552 2707 3258 
Q 2707 2867 2480 2614 
Q 2253 2362 1875 2272 
Q 2304 2234 2573 1965 
Q 2842 1696 2842 1235 
Q 2842 864 2662 563 
Q 2483 262 2150 92 
Q 1818 -77 1382 -77 
Q 992 -77 665 67 
Q 339 211 96 499 
L 448 826 
Q 659 608 880 505 
Q 1101 403 1363 403 
Q 1766 403 1996 630 
Q 2227 858 2227 1242 
Q 2227 1664 2009 1837 
Q 1792 2010 1376 2010 
L 1056 2010 
L 1126 2464 
L 1344 2464 
Q 1677 2464 1897 2662 
Q 2118 2861 2118 3219 
Q 2118 3520 1926 3696 
Q 1734 3872 1408 3872 
Q 1158 3872 950 3782 
Q 742 3693 525 3488 
L 218 3840 
Q 762 4346 1440 4346 
z
" transform="scale(0.015625)"/>
       </defs>
       <use xlink:href="#FiraSans-Regular-33"/>
      </g>
     </g>
    </g>
    <g id="xtick_24">
     <g id="text_4">
      <!-- 4 -->
      <g style="fill: #262626" transform="translate(332.844038 617.96) scale(0.22 -0.22)">
       <defs>
        <path id="FiraSans-Regular-34" d="M 3213 1523 
L 3213 1056 
L 2656 1056 
L 2656 0 
L 2086 0 
L 2086 1056 
L 256 1056 
L 256 1478 
L 1542 4346 
L 2035 4141 
L 877 1523 
L 2093 1523 
L 2144 2675 
L 2656 2675 
L 2656 1523 
L 3213 1523 
z
" transform="scale(0.015625)"/>
       </defs>
       <use xlink:href="#FiraSans-Regular-34"/>
      </g>
     </g>
    </g>
    <g id="xtick_25">
     <g id="text_5">
      <!-- 5 -->
      <g style="fill: #262626" transform="translate(436.111299 617.96) scale(0.22 -0.22)">
       <defs>
        <path id="FiraSans-Regular-35" d="M 2688 3821 
L 1018 3821 
L 1018 2560 
Q 1344 2726 1702 2726 
Q 2253 2726 2585 2364 
Q 2918 2003 2918 1370 
Q 2918 947 2732 617 
Q 2547 288 2211 105 
Q 1875 -77 1434 -77 
Q 1043 -77 736 60 
Q 429 198 166 467 
L 512 806 
Q 717 602 934 502 
Q 1152 403 1427 403 
Q 1837 403 2070 659 
Q 2304 915 2304 1382 
Q 2304 1850 2093 2061 
Q 1882 2272 1523 2272 
Q 1357 2272 1216 2237 
Q 1075 2202 915 2125 
L 454 2125 
L 454 4282 
L 2771 4282 
L 2688 3821 
z
" transform="scale(0.015625)"/>
       </defs>
       <use xlink:href="#FiraSans-Regular-35"/>
      </g>
     </g>
    </g>
    <g id="text_6">
     <!-- Predicted log CMC (μM) -->
     <g style="fill: #262626" transform="translate(116.173125 646.925312) scale(0.24 -0.24)">
      <defs>
       <path id="FiraSans-Regular-50" d="M 1798 4410 
Q 2618 4410 3066 4067 
Q 3514 3725 3514 3046 
Q 3514 2323 3046 1971 
Q 2579 1619 1805 1619 
L 1248 1619 
L 1248 0 
L 640 0 
L 640 4410 
L 1798 4410 
z
M 1779 2099 
Q 2310 2099 2588 2304 
Q 2867 2509 2867 3040 
Q 2867 3514 2588 3725 
Q 2310 3936 1792 3936 
L 1248 3936 
L 1248 2099 
L 1779 2099 
z
" transform="scale(0.015625)"/>
       <path id="FiraSans-Regular-72" d="M 2074 3450 
Q 2253 3450 2406 3411 
L 2298 2835 
Q 2144 2874 2003 2874 
Q 1690 2874 1498 2643 
Q 1306 2413 1197 1926 
L 1197 0 
L 608 0 
L 608 3373 
L 1114 3373 
L 1171 2688 
Q 1306 3066 1536 3258 
Q 1766 3450 2074 3450 
z
" transform="scale(0.015625)"/>
       <path id="FiraSans-Regular-65" d="M 3155 1786 
Q 3155 1638 3142 1485 
L 992 1485 
Q 1030 928 1273 665 
Q 1517 403 1901 403 
Q 2144 403 2349 473 
Q 2554 544 2778 698 
L 3034 346 
Q 2496 -77 1856 -77 
Q 1152 -77 758 384 
Q 365 845 365 1651 
Q 365 2176 534 2582 
Q 704 2989 1021 3219 
Q 1338 3450 1766 3450 
Q 2438 3450 2796 3008 
Q 3155 2566 3155 1786 
z
M 2573 1958 
Q 2573 2458 2374 2720 
Q 2176 2982 1779 2982 
Q 1056 2982 992 1920 
L 2573 1920 
L 2573 1958 
z
" transform="scale(0.015625)"/>
       <path id="FiraSans-Regular-64" d="M 3219 4730 
L 3219 0 
L 2701 0 
L 2643 467 
Q 2477 211 2227 67 
Q 1978 -77 1670 -77 
Q 1069 -77 733 396 
Q 397 870 397 1670 
Q 397 2189 557 2592 
Q 717 2995 1017 3222 
Q 1318 3450 1722 3450 
Q 2240 3450 2630 3034 
L 2630 4800 
L 3219 4730 
z
M 1798 390 
Q 2067 390 2259 515 
Q 2451 640 2630 890 
L 2630 2541 
Q 2464 2758 2275 2870 
Q 2086 2982 1850 2982 
Q 1459 2982 1244 2656 
Q 1030 2330 1030 1683 
Q 1030 1030 1228 710 
Q 1427 390 1798 390 
z
" transform="scale(0.015625)"/>
       <path id="FiraSans-Regular-69" d="M 1197 3373 
L 1197 0 
L 608 0 
L 608 3373 
L 1197 3373 
z
M 896 4992 
Q 1082 4992 1197 4877 
Q 1312 4762 1312 4589 
Q 1312 4416 1197 4304 
Q 1082 4192 896 4192 
Q 717 4192 601 4304 
Q 486 4416 486 4589 
Q 486 4762 601 4877 
Q 717 4992 896 4992 
z
" transform="scale(0.015625)"/>
       <path id="FiraSans-Regular-63" d="M 1837 3450 
Q 2138 3450 2387 3363 
Q 2637 3277 2867 3085 
L 2586 2714 
Q 2406 2842 2236 2902 
Q 2067 2963 1862 2963 
Q 1453 2963 1225 2636 
Q 998 2310 998 1670 
Q 998 1030 1222 726 
Q 1446 422 1862 422 
Q 2061 422 2227 483 
Q 2394 544 2598 678 
L 2867 294 
Q 2406 -77 1837 -77 
Q 1152 -77 758 384 
Q 365 845 365 1658 
Q 365 2195 544 2598 
Q 723 3002 1052 3226 
Q 1382 3450 1837 3450 
z
" transform="scale(0.015625)"/>
       <path id="FiraSans-Regular-74" d="M 2310 154 
Q 1978 -77 1555 -77 
Q 1126 -77 886 169 
Q 646 416 646 883 
L 646 2918 
L 58 2918 
L 58 3373 
L 646 3373 
L 646 4134 
L 1235 4205 
L 1235 3373 
L 2035 3373 
L 1971 2918 
L 1235 2918 
L 1235 909 
Q 1235 646 1328 528 
Q 1421 410 1638 410 
Q 1837 410 2086 544 
L 2310 154 
z
" transform="scale(0.015625)"/>
       <path id="FiraSans-Regular-20" transform="scale(0.015625)"/>
       <path id="FiraSans-Regular-6c" d="M 1280 -77 
Q 954 -77 765 118 
Q 576 314 576 666 
L 576 4730 
L 1165 4800 
L 1165 678 
Q 1165 538 1213 474 
Q 1261 410 1376 410 
Q 1498 410 1594 448 
L 1747 38 
Q 1536 -77 1280 -77 
z
" transform="scale(0.015625)"/>
       <path id="FiraSans-Regular-6f" d="M 1875 3450 
Q 2586 3450 2979 2976 
Q 3373 2502 3373 1690 
Q 3373 1165 3193 765 
Q 3014 365 2675 144 
Q 2336 -77 1869 -77 
Q 1158 -77 761 396 
Q 365 870 365 1683 
Q 365 2208 544 2608 
Q 723 3008 1062 3229 
Q 1402 3450 1875 3450 
z
M 1875 2976 
Q 998 2976 998 1683 
Q 998 397 1869 397 
Q 2739 397 2739 1690 
Q 2739 2976 1875 2976 
z
" transform="scale(0.015625)"/>
       <path id="FiraSans-Regular-67" d="M 3328 3219 
Q 3136 3155 2905 3136 
Q 2675 3117 2342 3117 
Q 2938 2848 2938 2266 
Q 2938 1760 2592 1440 
Q 2246 1120 1651 1120 
Q 1421 1120 1222 1184 
Q 1146 1133 1101 1046 
Q 1056 960 1056 870 
Q 1056 595 1498 595 
L 2035 595 
Q 2374 595 2636 473 
Q 2899 352 3043 141 
Q 3187 -70 3187 -339 
Q 3187 -832 2784 -1097 
Q 2381 -1363 1606 -1363 
Q 1062 -1363 745 -1251 
Q 429 -1139 294 -915 
Q 160 -691 160 -339 
L 691 -339 
Q 691 -544 768 -662 
Q 845 -781 1043 -841 
Q 1242 -902 1606 -902 
Q 2138 -902 2365 -771 
Q 2592 -640 2592 -378 
Q 2592 -141 2413 -19 
Q 2234 102 1914 102 
L 1382 102 
Q 954 102 733 284 
Q 512 467 512 742 
Q 512 909 608 1062 
Q 704 1216 883 1338 
Q 589 1491 451 1718 
Q 314 1946 314 2272 
Q 314 2611 483 2880 
Q 653 3149 950 3299 
Q 1248 3450 1613 3450 
Q 2010 3443 2278 3478 
Q 2547 3514 2723 3574 
Q 2899 3635 3155 3750 
L 3328 3219 
z
M 1613 3027 
Q 1280 3027 1097 2819 
Q 915 2611 915 2272 
Q 915 1926 1100 1718 
Q 1286 1510 1626 1510 
Q 1971 1510 2153 1712 
Q 2336 1914 2336 2278 
Q 2336 3027 1613 3027 
z
" transform="scale(0.015625)"/>
       <path id="FiraSans-Regular-43" d="M 2182 4486 
Q 2579 4486 2851 4384 
Q 3123 4282 3405 4051 
L 3072 3661 
Q 2669 3987 2221 3987 
Q 1670 3987 1334 3564 
Q 998 3142 998 2208 
Q 998 1299 1331 867 
Q 1664 435 2214 435 
Q 2496 435 2707 531 
Q 2918 627 3155 800 
L 3456 416 
Q 3251 205 2931 64 
Q 2611 -77 2195 -77 
Q 1658 -77 1238 188 
Q 819 454 585 969 
Q 352 1485 352 2208 
Q 352 2931 595 3446 
Q 838 3962 1254 4224 
Q 1670 4486 2182 4486 
z
" transform="scale(0.015625)"/>
       <path id="FiraSans-Regular-4d" d="M 4582 0 
L 3994 0 
L 3840 1990 
Q 3744 3162 3731 3789 
L 2778 499 
L 2208 499 
L 1203 3795 
Q 1203 2995 1120 1946 
L 973 0 
L 397 0 
L 762 4410 
L 1581 4410 
L 2509 1203 
L 3392 4410 
L 4218 4410 
L 4582 0 
z
" transform="scale(0.015625)"/>
       <path id="FiraSans-Regular-28" d="M 1818 5152 
Q 1485 4659 1289 4272 
Q 1094 3885 982 3392 
Q 870 2899 870 2240 
Q 870 1587 982 1094 
Q 1094 602 1289 208 
Q 1485 -186 1818 -672 
L 1446 -928 
Q 1024 -326 797 61 
Q 570 448 413 989 
Q 256 1530 256 2240 
Q 256 2950 413 3491 
Q 570 4032 797 4419 
Q 1024 4806 1446 5408 
L 1818 5152 
z
" transform="scale(0.015625)"/>
       <path id="FiraSans-Regular-3bc" d="M 3117 1152 
Q 3117 512 3283 0 
L 2733 -77 
Q 2662 90 2633 214 
Q 2605 339 2579 544 
L 2579 550 
Q 2426 282 2198 102 
Q 1971 -77 1696 -77 
Q 1472 -77 1328 -3 
Q 1184 70 1082 243 
Q 1139 64 1164 -128 
Q 1190 -320 1190 -614 
L 1190 -1293 
L 608 -1363 
L 608 3373 
L 1197 3373 
L 1197 998 
Q 1197 429 1702 429 
Q 2214 429 2528 1043 
L 2528 3373 
L 3117 3373 
L 3117 1152 
z
" transform="scale(0.015625)"/>
       <path id="FiraSans-Regular-29" d="M 627 5408 
Q 1050 4806 1277 4419 
Q 1504 4032 1661 3491 
Q 1818 2950 1818 2240 
Q 1818 1530 1661 989 
Q 1504 448 1277 61 
Q 1050 -326 627 -928 
L 256 -672 
Q 589 -186 784 208 
Q 979 602 1091 1094 
Q 1203 1587 1203 2240 
Q 1203 2899 1091 3392 
Q 979 3885 784 4272 
Q 589 4659 256 5152 
L 627 5408 
z
" transform="scale(0.015625)"/>
      </defs>
      <use xlink:href="#FiraSans-Regular-50"/>
      <use xlink:href="#FiraSans-Regular-72" x="58.099991"/>
      <use xlink:href="#FiraSans-Regular-65" x="96.699982"/>
      <use xlink:href="#FiraSans-Regular-64" x="151.199966"/>
      <use xlink:href="#FiraSans-Regular-69" x="210.999954"/>
      <use xlink:href="#FiraSans-Regular-63" x="239.199951"/>
      <use xlink:href="#FiraSans-Regular-74" x="286.999939"/>
      <use xlink:href="#FiraSans-Regular-65" x="323.09993"/>
      <use xlink:href="#FiraSans-Regular-64" x="377.599915"/>
      <use xlink:href="#FiraSans-Regular-20" x="437.399902"/>
      <use xlink:href="#FiraSans-Regular-6c" x="463.899887"/>
      <use xlink:href="#FiraSans-Regular-6f" x="493.199875"/>
      <use xlink:href="#FiraSans-Regular-67" x="551.599869"/>
      <use xlink:href="#FiraSans-Regular-20" x="603.599854"/>
      <use xlink:href="#FiraSans-Regular-43" x="630.099838"/>
      <use xlink:href="#FiraSans-Regular-4d" x="686.099823"/>
      <use xlink:href="#FiraSans-Regular-43" x="763.899811"/>
      <use xlink:href="#FiraSans-Regular-20" x="819.899796"/>
      <use xlink:href="#FiraSans-Regular-28" x="846.39978"/>
      <use xlink:href="#FiraSans-Regular-3bc" x="878.799774"/>
      <use xlink:href="#FiraSans-Regular-4d" x="937.599762"/>
      <use xlink:href="#FiraSans-Regular-29" x="1015.39975"/>
     </g>
    </g>
   </g>
   <g id="matplotlib.axis_10"/>
   <g id="PolyCollection_13">
    <defs>
     <path id="mb427534ba0" d="M 262.915812 -83.394744 
L 262.915812 -85.025505 
L 264.858852 -85.347083 
L 266.801891 -85.723506 
L 268.744931 -86.162321 
L 270.687971 -86.671764 
L 272.631011 -87.260757 
L 274.574051 -87.93889 
L 276.517091 -88.716391 
L 278.460131 -89.604073 
L 280.403171 -90.613263 
L 282.346211 -91.755706 
L 284.289251 -93.043454 
L 286.23229 -94.488715 
L 288.17533 -96.103692 
L 290.11837 -97.900386 
L 292.06141 -99.890382 
L 294.00445 -102.084606 
L 295.94749 -104.493062 
L 297.89053 -107.124561 
L 299.83357 -109.986421 
L 301.77661 -113.084175 
L 303.719649 -116.421264 
L 305.662689 -119.998744 
L 307.605729 -123.815001 
L 309.548769 -127.865488 
L 311.491809 -132.142487 
L 313.434849 -136.634913 
L 315.377889 -141.328159 
L 317.320929 -146.203998 
L 319.263969 -151.240538 
L 321.207009 -156.412255 
L 323.150048 -161.690084 
L 325.093088 -167.041596 
L 327.036128 -172.431244 
L 328.979168 -177.820692 
L 330.922208 -183.169213 
L 332.865248 -188.434158 
L 334.808288 -193.571493 
L 336.751328 -198.536384 
L 338.694368 -203.283833 
L 340.637408 -207.769347 
L 342.580447 -211.949619 
L 344.523487 -215.783222 
L 346.466527 -219.231287 
L 348.409567 -222.258162 
L 350.352607 -224.832017 
L 352.295647 -226.925407 
L 354.238687 -228.515759 
L 356.181727 -229.58577 
L 358.124767 -230.123731 
L 360.067806 -230.123731 
L 362.010846 -229.58577 
L 363.953886 -228.515759 
L 365.896926 -226.925407 
L 367.839966 -224.832017 
L 369.783006 -222.258162 
L 371.726046 -219.231287 
L 373.669086 -215.783222 
L 375.612126 -211.949619 
L 377.555166 -207.769347 
L 379.498205 -203.283833 
L 381.441245 -198.536384 
L 383.384285 -193.571493 
L 385.327325 -188.434158 
L 387.270365 -183.169213 
L 389.213405 -177.820692 
L 391.156445 -172.431244 
L 393.099485 -167.041596 
L 395.042525 -161.690084 
L 396.985564 -156.412255 
L 398.928604 -151.240538 
L 400.871644 -146.203998 
L 402.814684 -141.328159 
L 404.757724 -136.634913 
L 406.700764 -132.142487 
L 408.643804 -127.865488 
L 410.586844 -123.815001 
L 412.529884 -119.998744 
L 414.472924 -116.421264 
L 416.415963 -113.084175 
L 418.359003 -109.986421 
L 420.302043 -107.124561 
L 422.245083 -104.493062 
L 424.188123 -102.084606 
L 426.131163 -99.890382 
L 428.074203 -97.900386 
L 430.017243 -96.103692 
L 431.960283 -94.488715 
L 433.903323 -93.043454 
L 435.846362 -91.755706 
L 437.789402 -90.613263 
L 439.732442 -89.604073 
L 441.675482 -88.716391 
L 443.618522 -87.93889 
L 445.561562 -87.260757 
L 447.504602 -86.671764 
L 449.447642 -86.162321 
L 451.390682 -85.723506 
L 453.333721 -85.347083 
L 455.276761 -85.025505 
L 455.276761 -83.394744 
L 455.276761 -83.394744 
L 453.333721 -83.394744 
L 451.390682 -83.394744 
L 449.447642 -83.394744 
L 447.504602 -83.394744 
L 445.561562 -83.394744 
L 443.618522 -83.394744 
L 441.675482 -83.394744 
L 439.732442 -83.394744 
L 437.789402 -83.394744 
L 435.846362 -83.394744 
L 433.903323 -83.394744 
L 431.960283 -83.394744 
L 430.017243 -83.394744 
L 428.074203 -83.394744 
L 426.131163 -83.394744 
L 424.188123 -83.394744 
L 422.245083 -83.394744 
L 420.302043 -83.394744 
L 418.359003 -83.394744 
L 416.415963 -83.394744 
L 414.472924 -83.394744 
L 412.529884 -83.394744 
L 410.586844 -83.394744 
L 408.643804 -83.394744 
L 406.700764 -83.394744 
L 404.757724 -83.394744 
L 402.814684 -83.394744 
L 400.871644 -83.394744 
L 398.928604 -83.394744 
L 396.985564 -83.394744 
L 395.042525 -83.394744 
L 393.099485 -83.394744 
L 391.156445 -83.394744 
L 389.213405 -83.394744 
L 387.270365 -83.394744 
L 385.327325 -83.394744 
L 383.384285 -83.394744 
L 381.441245 -83.394744 
L 379.498205 -83.394744 
L 377.555166 -83.394744 
L 375.612126 -83.394744 
L 373.669086 -83.394744 
L 371.726046 -83.394744 
L 369.783006 -83.394744 
L 367.839966 -83.394744 
L 365.896926 -83.394744 
L 363.953886 -83.394744 
L 362.010846 -83.394744 
L 360.067806 -83.394744 
L 358.124767 -83.394744 
L 356.181727 -83.394744 
L 354.238687 -83.394744 
L 352.295647 -83.394744 
L 350.352607 -83.394744 
L 348.409567 -83.394744 
L 346.466527 -83.394744 
L 344.523487 -83.394744 
L 342.580447 -83.394744 
L 340.637408 -83.394744 
L 338.694368 -83.394744 
L 336.751328 -83.394744 
L 334.808288 -83.394744 
L 332.865248 -83.394744 
L 330.922208 -83.394744 
L 328.979168 -83.394744 
L 327.036128 -83.394744 
L 325.093088 -83.394744 
L 323.150048 -83.394744 
L 321.207009 -83.394744 
L 319.263969 -83.394744 
L 317.320929 -83.394744 
L 315.377889 -83.394744 
L 313.434849 -83.394744 
L 311.491809 -83.394744 
L 309.548769 -83.394744 
L 307.605729 -83.394744 
L 305.662689 -83.394744 
L 303.719649 -83.394744 
L 301.77661 -83.394744 
L 299.83357 -83.394744 
L 297.89053 -83.394744 
L 295.94749 -83.394744 
L 294.00445 -83.394744 
L 292.06141 -83.394744 
L 290.11837 -83.394744 
L 288.17533 -83.394744 
L 286.23229 -83.394744 
L 284.289251 -83.394744 
L 282.346211 -83.394744 
L 280.403171 -83.394744 
L 278.460131 -83.394744 
L 276.517091 -83.394744 
L 274.574051 -83.394744 
L 272.631011 -83.394744 
L 270.687971 -83.394744 
L 268.744931 -83.394744 
L 266.801891 -83.394744 
L 264.858852 -83.394744 
L 262.915812 -83.394744 
z
" style="stroke: #8172b3; stroke-width: 2"/>
    </defs>
    <g clip-path="url(#p316fcb951a)">
     <use xlink:href="#mb427534ba0" x="0" y="659.236562" style="fill: #8172b3; stroke: #8172b3; stroke-width: 2"/>
    </g>
   </g>
   <g id="PolyCollection_14"/>
   <g id="PolyCollection_15"/>
   <g id="line2d_13">
    <path d="M 262.915812 574.211058 
L 264.858852 573.889479 
L 266.801891 573.513057 
L 268.744931 573.074242 
L 270.687971 572.564799 
L 272.631011 571.975806 
L 274.574051 571.297672 
L 276.517091 570.520171 
L 278.460131 569.632489 
L 280.403171 568.6233 
L 282.346211 567.480856 
L 284.289251 566.193109 
L 286.23229 564.747848 
L 288.17533 563.132871 
L 290.11837 561.336176 
L 292.06141 559.34618 
L 294.00445 557.151957 
L 295.94749 554.7435 
L 297.89053 552.112001 
L 299.83357 549.250141 
L 301.77661 546.152387 
L 303.719649 542.815299 
L 305.662689 539.237819 
L 307.605729 535.421562 
L 309.548769 531.371075 
L 311.491809 527.094076 
L 313.434849 522.60165 
L 315.377889 517.908403 
L 317.320929 513.032565 
L 319.263969 507.996024 
L 321.207009 502.824307 
L 323.150048 497.546478 
L 325.093088 492.194967 
L 327.036128 486.805318 
L 328.979168 481.41587 
L 330.922208 476.067349 
L 332.865248 470.802404 
L 334.808288 465.66507 
L 336.751328 460.700179 
L 338.694368 455.952729 
L 340.637408 451.467215 
L 342.580447 447.286943 
L 344.523487 443.453341 
L 346.466527 440.005275 
L 348.409567 436.978401 
L 350.352607 434.404546 
L 352.295647 432.311155 
L 354.238687 430.720804 
L 356.181727 429.650792 
L 358.124767 429.112831 
L 360.067806 429.112831 
L 362.010846 429.650792 
L 363.953886 430.720804 
L 365.896926 432.311155 
L 367.839966 434.404546 
L 369.783006 436.978401 
L 371.726046 440.005275 
L 373.669086 443.453341 
L 375.612126 447.286943 
L 377.555166 451.467215 
L 379.498205 455.952729 
L 381.441245 460.700179 
L 383.384285 465.66507 
L 385.327325 470.802404 
L 387.270365 476.067349 
L 389.213405 481.41587 
L 391.156445 486.805318 
L 393.099485 492.194967 
L 395.042525 497.546478 
L 396.985564 502.824307 
L 398.928604 507.996024 
L 400.871644 513.032565 
L 402.814684 517.908403 
L 404.757724 522.60165 
L 406.700764 527.094076 
L 408.643804 531.371075 
L 410.586844 535.421562 
L 412.529884 539.237819 
L 414.472924 542.815299 
L 416.415963 546.152387 
L 418.359003 549.250141 
L 420.302043 552.112001 
L 422.245083 554.7435 
L 424.188123 557.151957 
L 426.131163 559.34618 
L 428.074203 561.336176 
L 430.017243 563.132871 
L 431.960283 564.747848 
L 433.903323 566.193109 
L 435.846362 567.480856 
L 437.789402 568.6233 
L 439.732442 569.632489 
L 441.675482 570.520171 
L 443.618522 571.297672 
L 445.561562 571.975806 
L 447.504602 572.564799 
L 449.447642 573.074242 
L 451.390682 573.513057 
L 453.333721 573.889479 
L 455.276761 574.211058 
" style="fill: none; stroke: #8172b3; stroke-width: 1.5; stroke-linecap: round"/>
   </g>
   <g id="line2d_14">
    <path d="M 262.915812 574.211058 
L 264.858852 573.889479 
L 266.801891 573.513057 
L 268.744931 573.074242 
L 270.687971 572.564799 
L 272.631011 571.975806 
L 274.574051 571.297672 
L 276.517091 570.520171 
L 278.460131 569.632489 
L 280.403171 568.6233 
L 282.346211 567.480856 
L 284.289251 566.193109 
L 286.23229 564.747848 
L 288.17533 563.132871 
L 290.11837 561.336176 
L 292.06141 559.34618 
L 294.00445 557.151957 
L 295.94749 554.7435 
L 297.89053 552.112001 
L 299.83357 549.250141 
L 301.77661 546.152387 
L 303.719649 542.815299 
L 305.662689 539.237819 
L 307.605729 535.421562 
L 309.548769 531.371075 
L 311.491809 527.094076 
L 313.434849 522.60165 
L 315.377889 517.908403 
L 317.320929 513.032565 
L 319.263969 507.996024 
L 321.207009 502.824307 
L 323.150048 497.546478 
L 325.093088 492.194967 
L 327.036128 486.805318 
L 328.979168 481.41587 
L 330.922208 476.067349 
L 332.865248 470.802404 
L 334.808288 465.66507 
L 336.751328 460.700179 
L 338.694368 455.952729 
L 340.637408 451.467215 
L 342.580447 447.286943 
L 344.523487 443.453341 
L 346.466527 440.005275 
L 348.409567 436.978401 
L 350.352607 434.404546 
L 352.295647 432.311155 
L 354.238687 430.720804 
L 356.181727 429.650792 
L 358.124767 429.112831 
L 360.067806 429.112831 
L 362.010846 429.650792 
L 363.953886 430.720804 
L 365.896926 432.311155 
L 367.839966 434.404546 
L 369.783006 436.978401 
L 371.726046 440.005275 
L 373.669086 443.453341 
L 375.612126 447.286943 
L 377.555166 451.467215 
L 379.498205 455.952729 
L 381.441245 460.700179 
L 383.384285 465.66507 
L 385.327325 470.802404 
L 387.270365 476.067349 
L 389.213405 481.41587 
L 391.156445 486.805318 
L 393.099485 492.194967 
L 395.042525 497.546478 
L 396.985564 502.824307 
L 398.928604 507.996024 
L 400.871644 513.032565 
L 402.814684 517.908403 
L 404.757724 522.60165 
L 406.700764 527.094076 
L 408.643804 531.371075 
L 410.586844 535.421562 
L 412.529884 539.237819 
L 414.472924 542.815299 
L 416.415963 546.152387 
L 418.359003 549.250141 
L 420.302043 552.112001 
L 422.245083 554.7435 
L 424.188123 557.151957 
L 426.131163 559.34618 
L 428.074203 561.336176 
L 430.017243 563.132871 
L 431.960283 564.747848 
L 433.903323 566.193109 
L 435.846362 567.480856 
L 437.789402 568.6233 
L 439.732442 569.632489 
L 441.675482 570.520171 
L 443.618522 571.297672 
L 445.561562 571.975806 
L 447.504602 572.564799 
L 449.447642 573.074242 
L 451.390682 573.513057 
L 453.333721 573.889479 
L 455.276761 574.211058 
" style="fill: none; stroke: #ffffff; stroke-width: 3; stroke-linecap: round"/>
   </g>
   <g id="line2d_15">
    <path d="M 7.2 575.841818 
L 476.61375 575.841818 
" style="fill: none; stroke: #8172b3; stroke-width: 2; stroke-linecap: round"/>
   </g>
  </g>
 </g>
 <defs>
  <clipPath id="p06d1fcb2e3">
   <rect x="7.2" y="7.2" width="469.41375" height="222.6"/>
  </clipPath>
  <clipPath id="pfe905f3103">
   <rect x="7.2" y="96.24" width="469.41375" height="222.6"/>
  </clipPath>
  <clipPath id="pc8b6f430c7">
   <rect x="7.2" y="185.28" width="469.41375" height="222.6"/>
  </clipPath>
  <clipPath id="pbc24f4dbf4">
   <rect x="7.2" y="274.32" width="469.41375" height="222.6"/>
  </clipPath>
  <clipPath id="p316fcb951a">
   <rect x="7.2" y="363.36" width="469.41375" height="222.6"/>
  </clipPath>
 </defs>
</svg>
