<?xml version="1.0" encoding="utf-8" standalone="no"?>
<!DOCTYPE svg PUBLIC "-//W3C//DTD SVG 1.1//EN"
  "http://www.w3.org/Graphics/SVG/1.1/DTD/svg11.dtd">
<svg xmlns:xlink="http://www.w3.org/1999/xlink" width="504pt" height="360pt" viewBox="0 0 504 360" xmlns="http://www.w3.org/2000/svg" version="1.1">
 <metadata>
  <rdf:RDF xmlns:dc="http://purl.org/dc/elements/1.1/" xmlns:cc="http://creativecommons.org/ns#" xmlns:rdf="http://www.w3.org/1999/02/22-rdf-syntax-ns#">
   <cc:Work>
    <dc:type rdf:resource="http://purl.org/dc/dcmitype/StillImage"/>
    <dc:date>2023-09-15T17:16:00.515106</dc:date>
    <dc:format>image/svg+xml</dc:format>
    <dc:creator>
     <cc:Agent>
      <dc:title>Matplotlib v3.7.1, https://matplotlib.org/</dc:title>
     </cc:Agent>
    </dc:creator>
   </cc:Work>
  </rdf:RDF>
 </metadata>
 <defs>
  <style type="text/css">*{stroke-linejoin: round; stroke-linecap: butt}</style>
 </defs>
 <g id="figure_1">
  <g id="patch_1">
   <path d="M 0 360 
L 504 360 
L 504 0 
L 0 0 
L 0 360 
z
" style="fill: none"/>
  </g>
  <g id="axes_1">
   <g id="patch_2">
    <path d="M 118.554119 320.4 
L 398.045881 320.4 
L 398.045881 43.2 
L 118.554119 43.2 
L 118.554119 320.4 
z
" style="fill: none"/>
   </g>
   <g id="matplotlib.axis_1"/>
   <g id="matplotlib.axis_2"/>
   <g id="PathCollection_1">
    <defs>
     <path id="m9c9b009969" d="M -4.743416 4.743416 
L 4.743416 -4.743416 
M -4.743416 -4.743416 
L 4.743416 4.743416 
" style="stroke: #808080; stroke-width: 0.758947"/>
    </defs>
    <g clip-path="url(#pc469b9a778)">
     <use xlink:href="#m9c9b009969" x="383.569056" y="95.170238" style="fill: #808080; stroke: #808080; stroke-width: 0.758947"/>
     <use xlink:href="#m9c9b009969" x="366.615949" y="148.176057" style="fill: #808080; stroke: #808080; stroke-width: 0.758947"/>
     <use xlink:href="#m9c9b009969" x="349.216064" y="201.317003" style="fill: #808080; stroke: #808080; stroke-width: 0.758947"/>
     <use xlink:href="#m9c9b009969" x="385.34171" y="246.750373" style="fill: #808080; stroke: #808080; stroke-width: 0.758947"/>
     <use xlink:href="#m9c9b009969" x="378.075115" y="304.55121" style="fill: #808080; stroke: #808080; stroke-width: 0.758947"/>
     <use xlink:href="#m9c9b009969" x="288.821163" y="67.551157" style="fill: #808080; stroke: #808080; stroke-width: 0.758947"/>
     <use xlink:href="#m9c9b009969" x="333.21999" y="261.826263" style="fill: #808080; stroke: #808080; stroke-width: 0.758947"/>
     <use xlink:href="#m9c9b009969" x="344.986371" y="55.8" style="fill: #808080; stroke: #808080; stroke-width: 0.758947"/>
     <use xlink:href="#m9c9b009969" x="171.331773" y="238.0478" style="fill: #808080; stroke: #808080; stroke-width: 0.758947"/>
     <use xlink:href="#m9c9b009969" x="156.645887" y="128.183386" style="fill: #808080; stroke: #808080; stroke-width: 0.758947"/>
     <use xlink:href="#m9c9b009969" x="131.25829" y="192.448864" style="fill: #808080; stroke: #808080; stroke-width: 0.758947"/>
     <use xlink:href="#m9c9b009969" x="216.449311" y="111.346205" style="fill: #808080; stroke: #808080; stroke-width: 0.758947"/>
     <use xlink:href="#m9c9b009969" x="207.896103" y="290.183055" style="fill: #808080; stroke: #808080; stroke-width: 0.758947"/>
     <use xlink:href="#m9c9b009969" x="193.297725" y="176.40375" style="fill: #808080; stroke: #808080; stroke-width: 0.758947"/>
     <use xlink:href="#m9c9b009969" x="176.074188" y="64.359718" style="fill: #808080; stroke: #808080; stroke-width: 0.758947"/>
     <use xlink:href="#m9c9b009969" x="270.83151" y="119.31952" style="fill: #808080; stroke: #808080; stroke-width: 0.758947"/>
     <use xlink:href="#m9c9b009969" x="275.536857" y="278.07772" style="fill: #808080; stroke: #808080; stroke-width: 0.758947"/>
     <use xlink:href="#m9c9b009969" x="237.857109" y="231.664777" style="fill: #808080; stroke: #808080; stroke-width: 0.758947"/>
    </g>
   </g>
   <g id="PathCollection_2">
    <defs>
     <path id="C0_0_a6b38ad972" d="M 0 7.071068 
C 1.875269 7.071068 3.673985 6.326016 5 5 
C 6.326016 3.673985 7.071068 1.875269 7.071068 -0 
C 7.071068 -1.875269 6.326016 -3.673985 5 -5 
C 3.673985 -6.326016 1.875269 -7.071068 0 -7.071068 
C -1.875269 -7.071068 -3.673985 -6.326016 -5 -5 
C -6.326016 -3.673985 -7.071068 -1.875269 -7.071068 0 
C -7.071068 1.875269 -6.326016 3.673985 -5 5 
C -3.673985 6.326016 -1.875269 7.071068 0 7.071068 
z
"/>
    </defs>
    <g clip-path="url(#pc469b9a778)">
     <use xlink:href="#C0_0_a6b38ad972" x="313.58294" y="158.853875" style="fill: #4c72b0; stroke: #ffffff; stroke-width: 1.131371"/>
    </g>
    <g clip-path="url(#pc469b9a778)">
     <use xlink:href="#C0_0_a6b38ad972" x="256.845362" y="174.012939" style="fill: #dd8452; stroke: #ffffff; stroke-width: 1.131371"/>
    </g>
    <g clip-path="url(#pc469b9a778)">
     <use xlink:href="#C0_0_a6b38ad972" x="296.723127" y="217.325717" style="fill: #55a868; stroke: #ffffff; stroke-width: 1.131371"/>
    </g>
    <g clip-path="url(#pc469b9a778)">
     <use xlink:href="#C0_0_a6b38ad972" x="330.23359" y="106.683178" style="fill: #c44e52; stroke: #ffffff; stroke-width: 1.131371"/>
    </g>
    <g clip-path="url(#pc469b9a778)">
     <use xlink:href="#C0_0_a6b38ad972" x="152.517721" y="307.8" style="fill: #8172b3; stroke: #ffffff; stroke-width: 1.131371"/>
    </g>
   </g>
   <g id="patch_3">
    <path d="M 118.554119 320.4 
L 118.554119 43.2 
" style="fill: none; stroke: #262626; stroke-width: 2.5; stroke-linejoin: miter; stroke-linecap: square"/>
   </g>
   <g id="patch_4">
    <path d="M 398.045881 320.4 
L 398.045881 43.2 
" style="fill: none; stroke: #262626; stroke-width: 2.5; stroke-linejoin: miter; stroke-linecap: square"/>
   </g>
   <g id="patch_5">
    <path d="M 118.554119 320.4 
L 398.045881 320.4 
" style="fill: none; stroke: #262626; stroke-width: 2.5; stroke-linejoin: miter; stroke-linecap: square"/>
   </g>
   <g id="patch_6">
    <path d="M 118.554119 43.2 
L 398.045881 43.2 
" style="fill: none; stroke: #262626; stroke-width: 2.5; stroke-linejoin: miter; stroke-linecap: square"/>
   </g>
   <g id="text_1">
    <!-- Latent space -->
    <g style="fill: #262626" transform="translate(188.844375 37.2) scale(0.24 -0.24)">
     <defs>
      <path id="FiraSans-Regular-4c" d="M 1248 4410 
L 1248 531 
L 3059 531 
L 2989 0 
L 640 0 
L 640 4410 
L 1248 4410 
z
" transform="scale(0.015625)"/>
      <path id="FiraSans-Regular-61" d="M 2880 787 
Q 2880 582 2950 483 
Q 3021 384 3162 333 
L 3027 -77 
Q 2765 -45 2605 70 
Q 2445 186 2368 429 
Q 2029 -77 1363 -77 
Q 864 -77 576 204 
Q 288 486 288 941 
Q 288 1478 675 1766 
Q 1062 2054 1773 2054 
L 2291 2054 
L 2291 2304 
Q 2291 2662 2118 2816 
Q 1946 2970 1587 2970 
Q 1216 2970 678 2790 
L 531 3219 
Q 1158 3450 1696 3450 
Q 2291 3450 2585 3158 
Q 2880 2867 2880 2330 
L 2880 787 
z
M 1498 365 
Q 2003 365 2291 890 
L 2291 1664 
L 1850 1664 
Q 915 1664 915 973 
Q 915 672 1062 518 
Q 1210 365 1498 365 
z
" transform="scale(0.015625)"/>
      <path id="FiraSans-Regular-74" d="M 2310 154 
Q 1978 -77 1555 -77 
Q 1126 -77 886 169 
Q 646 416 646 883 
L 646 2918 
L 58 2918 
L 58 3373 
L 646 3373 
L 646 4134 
L 1235 4205 
L 1235 3373 
L 2035 3373 
L 1971 2918 
L 1235 2918 
L 1235 909 
Q 1235 646 1328 528 
Q 1421 410 1638 410 
Q 1837 410 2086 544 
L 2310 154 
z
" transform="scale(0.015625)"/>
      <path id="FiraSans-Regular-65" d="M 3155 1786 
Q 3155 1638 3142 1485 
L 992 1485 
Q 1030 928 1273 665 
Q 1517 403 1901 403 
Q 2144 403 2349 473 
Q 2554 544 2778 698 
L 3034 346 
Q 2496 -77 1856 -77 
Q 1152 -77 758 384 
Q 365 845 365 1651 
Q 365 2176 534 2582 
Q 704 2989 1021 3219 
Q 1338 3450 1766 3450 
Q 2438 3450 2796 3008 
Q 3155 2566 3155 1786 
z
M 2573 1958 
Q 2573 2458 2374 2720 
Q 2176 2982 1779 2982 
Q 1056 2982 992 1920 
L 2573 1920 
L 2573 1958 
z
" transform="scale(0.015625)"/>
      <path id="FiraSans-Regular-6e" d="M 2195 3450 
Q 2656 3450 2915 3174 
Q 3174 2899 3174 2419 
L 3174 0 
L 2586 0 
L 2586 2336 
Q 2586 2694 2451 2841 
Q 2317 2989 2054 2989 
Q 1786 2989 1581 2835 
Q 1376 2682 1197 2394 
L 1197 0 
L 608 0 
L 608 3373 
L 1114 3373 
L 1165 2874 
Q 1344 3142 1609 3296 
Q 1875 3450 2195 3450 
z
" transform="scale(0.015625)"/>
      <path id="FiraSans-Regular-20" transform="scale(0.015625)"/>
      <path id="FiraSans-Regular-73" d="M 1523 3450 
Q 1869 3450 2144 3354 
Q 2419 3258 2669 3066 
L 2419 2694 
Q 2189 2842 1981 2912 
Q 1773 2982 1542 2982 
Q 1254 2982 1088 2864 
Q 922 2746 922 2541 
Q 922 2336 1078 2221 
Q 1235 2106 1645 1997 
Q 2208 1856 2486 1613 
Q 2765 1370 2765 947 
Q 2765 448 2377 185 
Q 1990 -77 1434 -77 
Q 666 -77 160 365 
L 474 723 
Q 902 397 1421 397 
Q 1754 397 1949 534 
Q 2144 672 2144 909 
Q 2144 1082 2073 1187 
Q 2003 1293 1830 1373 
Q 1658 1453 1325 1542 
Q 787 1683 547 1920 
Q 307 2157 307 2522 
Q 307 2784 464 2998 
Q 621 3213 899 3331 
Q 1178 3450 1523 3450 
z
" transform="scale(0.015625)"/>
      <path id="FiraSans-Regular-70" d="M 2157 3450 
Q 2803 3450 3104 2989 
Q 3405 2528 3405 1690 
Q 3405 896 3059 409 
Q 2714 -77 2080 -77 
Q 1517 -77 1197 307 
L 1197 -1293 
L 608 -1363 
L 608 3373 
L 1114 3373 
L 1158 2918 
Q 1344 3174 1606 3312 
Q 1869 3450 2157 3450 
z
M 1939 403 
Q 2771 403 2771 1690 
Q 2771 2982 2010 2982 
Q 1760 2982 1555 2835 
Q 1350 2688 1197 2458 
L 1197 813 
Q 1325 614 1517 508 
Q 1709 403 1939 403 
z
" transform="scale(0.015625)"/>
      <path id="FiraSans-Regular-63" d="M 1837 3450 
Q 2138 3450 2387 3363 
Q 2637 3277 2867 3085 
L 2586 2714 
Q 2406 2842 2236 2902 
Q 2067 2963 1862 2963 
Q 1453 2963 1225 2636 
Q 998 2310 998 1670 
Q 998 1030 1222 726 
Q 1446 422 1862 422 
Q 2061 422 2227 483 
Q 2394 544 2598 678 
L 2867 294 
Q 2406 -77 1837 -77 
Q 1152 -77 758 384 
Q 365 845 365 1658 
Q 365 2195 544 2598 
Q 723 3002 1052 3226 
Q 1382 3450 1837 3450 
z
" transform="scale(0.015625)"/>
     </defs>
     <use xlink:href="#FiraSans-Regular-4c"/>
     <use xlink:href="#FiraSans-Regular-61" x="49.799988"/>
     <use xlink:href="#FiraSans-Regular-74" x="104.199982"/>
     <use xlink:href="#FiraSans-Regular-65" x="140.299973"/>
     <use xlink:href="#FiraSans-Regular-6e" x="194.799957"/>
     <use xlink:href="#FiraSans-Regular-74" x="253.399948"/>
     <use xlink:href="#FiraSans-Regular-20" x="289.499939"/>
     <use xlink:href="#FiraSans-Regular-73" x="315.999924"/>
     <use xlink:href="#FiraSans-Regular-70" x="362.699921"/>
     <use xlink:href="#FiraSans-Regular-61" x="422.099915"/>
     <use xlink:href="#FiraSans-Regular-63" x="476.499908"/>
     <use xlink:href="#FiraSans-Regular-65" x="524.299896"/>
    </g>
   </g>
  </g>
 </g>
 <defs>
  <clipPath id="pc469b9a778">
   <rect x="118.554119" y="43.2" width="279.491761" height="277.2"/>
  </clipPath>
 </defs>
</svg>
