<?xml version="1.0" standalone="no"?>
<svg xmlns="http://www.w3.org/2000/svg" xmlns:xlink="http://www.w3.org/1999/xlink" width="776pt" height="582pt" viewBox="0.00 0.00 775.6 582">
<g id="graph0" class="graph" transform="translate(44.22628919033485,540.0409070216689) scale(0.8705505632961241)" data-name="G">

<polygon fill="white" stroke="none" points="-4,4 -4,-578 771.6,-578 771.6,4 -4,4"/>
<g id="clust1" class="cluster" data-name="cluster_0">

<polygon fill="#f4dbd6" stroke="#f4dbd6" points="40.31,-8 40.31,-179 129.24,-179 129.24,-8 40.31,-8"/>
<text text-anchor="middle" x="84.78" y="-162.4" font-family="Fira Sans" font-size="14.00">Parsing</text>
</g>
<g id="clust2" class="cluster" data-name="cluster_1">

<polygon fill="#91d7e3" stroke="#91d7e3" points="227.55,-85 227.55,-348 326.21,-348 326.21,-85 227.55,-85"/>
<text text-anchor="middle" x="276.88" y="-331.4" font-family="Fira Sans" font-size="14.00">Graph layers</text>
</g>
<g id="clust3" class="cluster" data-name="cluster_2">

<polygon fill="#ee99a0" stroke="#ee99a0" points="488.72,-248 488.72,-566 597.26,-566 597.26,-248 488.72,-248"/>
<text text-anchor="middle" x="542.99" y="-549.4" font-family="Fira Sans" font-size="14.00">Multi-layer</text>
<text text-anchor="middle" x="542.99" y="-532.6" font-family="Fira Sans" font-size="14.00">perceptron</text>
</g>
<g id="clust4" class="cluster" data-name="cluster_3_margin">

</g>
<g id="clust5" class="cluster" data-name="cluster_3">

<polygon fill="none" stroke="black" stroke-dasharray="5,2" points="23,-199 23,-452 204.55,-452 204.55,-199 23,-199"/>
<text text-anchor="middle" x="113.78" y="-435.4" font-family="Fira Sans" font-size="14.00">Key</text>
</g>
<!-- SMILES -->
<g id="node1" class="node" pointer-events="visible" data-name="SMILES">

<polygon fill="white" stroke="black" points="120.56,-54.3 48.99,-54.3 48.99,-15.7 120.56,-15.7 120.56,-54.3"/>
<text text-anchor="middle" x="84.78" y="-30.8" font-family="Fira Sans" font-size="14.00">SMILES</text>
</g>
<!-- molgraph -->
<g id="node2" class="node" pointer-events="visible" data-name="molgraph">

<polygon fill="white" stroke="black" points="121.21,-145.6 48.34,-145.6 48.34,-90.4 121.21,-90.4 121.21,-145.6"/>
<text text-anchor="middle" x="84.78" y="-122.2" font-family="Fira Sans" font-size="14.00">Graph</text>
<text text-anchor="middle" x="84.78" y="-105.4" font-family="Fira Sans" font-size="14.00">[N × ≥8]</text>
</g>
<!-- SMILES&#45;&gt;molgraph -->
<g id="edge1" class="edge" data-name="SMILES-&gt;molgraph">

<path fill="none" stroke="black" d="M85.6,-54.67C85.6,-54.67 85.6,-78.48 85.6,-78.48"/>
<polygon fill="black" stroke="black" points="82.1,-78.48 85.6,-88.48 89.1,-78.48 82.1,-78.48"/>
</g>
<!-- pre_graph -->
<g id="node3" class="node" pointer-events="visible" data-name="pre_graph">

<ellipse fill="white" stroke="black" cx="178.55" cy="-118" rx="0.04" ry="0.04"/>
</g>
<!-- molgraph&#45;&gt;pre_graph -->
<g id="edge13" class="edge" data-name="molgraph-&gt;pre_graph">

<path fill="none" stroke="black" d="M121.57,-118C146.2,-118 174.73,-118 178.2,-118"/>
</g>
<!-- G1 -->
<g id="node4" class="node" pointer-events="visible" data-name="G1">

<polygon fill="white" stroke="black" points="318.04,-143 235.72,-143 235.72,-93 318.04,-93 318.04,-143"/>
<text text-anchor="start" x="268.32" y="-120.4" font-family="Fira Sans" font-size="14.00">G1</text>
<text text-anchor="start" x="246.55" y="-106.4" font-family="Fira Sans" font-size="14.00">[N × </text>
<text text-anchor="start" x="275.32" y="-106.4" font-family="Fira Sans" font-style="italic" font-size="14.00">H</text>
<text text-anchor="start" x="285.43" y="-106.4" font-family="Fira Sans" font-style="italic" baseline-shift="sub" font-size="14.00">G1</text>
<text text-anchor="start" x="302.54" y="-106.4" font-family="Fira Sans" font-size="14.00">]</text>
</g>
<!-- pre_graph&#45;&gt;G1 -->
<g id="edge14" class="edge" data-name="pre_graph-&gt;G1">

<path fill="none" stroke="black" d="M178.83,-118C178.83,-118 223.78,-118 223.78,-118"/>
<polygon fill="black" stroke="black" points="223.78,-121.5 233.78,-118 223.78,-114.5 223.78,-121.5"/>
</g>
<!-- G2 -->
<g id="node5" class="node" pointer-events="visible" data-name="G2">

<polygon fill="white" stroke="black" points="318.04,-229 235.72,-229 235.72,-179 318.04,-179 318.04,-229"/>
<text text-anchor="start" x="268.32" y="-206.4" font-family="Fira Sans" font-size="14.00">G2</text>
<text text-anchor="start" x="246.55" y="-192.4" font-family="Fira Sans" font-size="14.00">[N × </text>
<text text-anchor="start" x="275.32" y="-192.4" font-family="Fira Sans" font-style="italic" font-size="14.00">H</text>
<text text-anchor="start" x="285.43" y="-192.4" font-family="Fira Sans" font-style="italic" baseline-shift="sub" font-size="14.00">G2</text>
<text text-anchor="start" x="302.54" y="-192.4" font-family="Fira Sans" font-size="14.00">]</text>
</g>
<!-- G1&#45;&gt;G2 -->
<g id="edge2" class="edge" data-name="G1-&gt;G2">

<path fill="none" stroke="black" d="M277.6,-143.34C277.6,-143.34 277.6,-167.03 277.6,-167.03"/>
<polygon fill="black" stroke="black" points="274.1,-167.03 277.6,-177.03 281.1,-167.03 274.1,-167.03"/>
</g>
<!-- G3 -->
<g id="node6" class="node" pointer-events="visible" data-name="G3">

<polygon fill="white" stroke="black" points="318.04,-315 235.72,-315 235.72,-265 318.04,-265 318.04,-315"/>
<text text-anchor="start" x="268.32" y="-292.4" font-family="Fira Sans" font-size="14.00">G3</text>
<text text-anchor="start" x="246.55" y="-278.4" font-family="Fira Sans" font-size="14.00">[N × </text>
<text text-anchor="start" x="275.32" y="-278.4" font-family="Fira Sans" font-style="italic" font-size="14.00">H</text>
<text text-anchor="start" x="285.43" y="-278.4" font-family="Fira Sans" font-style="italic" baseline-shift="sub" font-size="14.00">G3</text>
<text text-anchor="start" x="302.54" y="-278.4" font-family="Fira Sans" font-size="14.00">]</text>
</g>
<!-- G2&#45;&gt;G3 -->
<g id="edge3" class="edge" data-name="G2-&gt;G3">

<path fill="none" stroke="black" stroke-dasharray="1,5" d="M277.6,-229.34C277.6,-229.34 277.6,-253.03 277.6,-253.03"/>
<polygon fill="black" stroke="black" points="274.1,-253.03 277.6,-263.03 281.1,-253.03 274.1,-253.03"/>
</g>
<!-- pre_pool -->
<g id="node7" class="node" pointer-events="visible" data-name="pre_pool">

<ellipse fill="white" stroke="black" cx="354.21" cy="-247" rx="0" ry="0"/>
</g>
<!-- G2&#45;&gt;pre_pool -->
<g id="edge16" class="edge" data-name="G2-&gt;pre_pool">

<path fill="none" stroke="black" stroke-dasharray="1,5" d="M318.47,-225.5C336.95,-225.5 354.6,-225.5 354.6,-225.5 354.6,-225.5 354.6,-244.4 354.6,-246.76"/>
</g>
<!-- G3&#45;&gt;pre_pool -->
<g id="edge15" class="edge" data-name="G3-&gt;pre_pool">

<path fill="none" stroke="black" d="M318.47,-268.5C336.95,-268.5 354.6,-268.5 354.6,-268.5 354.6,-268.5 354.6,-249.6 354.6,-247.24"/>
</g>
<!-- pool -->
<g id="node20" class="node" pointer-events="visible" data-name="pool">

<polygon fill="white" stroke="black" points="447.19,-272 390.21,-272 390.21,-222 447.19,-222 447.19,-272"/>
<text text-anchor="start" x="405.86" y="-249.4" font-family="Fira Sans" font-size="14.00">Pool</text>
<text text-anchor="start" x="401.21" y="-235.4" font-family="Fira Sans" font-size="14.00">  [</text>
<text text-anchor="start" x="412.87" y="-235.4" font-family="Fira Sans" font-style="italic" font-size="14.00">H</text>
<text text-anchor="start" x="422.98" y="-235.4" font-family="Fira Sans" font-style="italic" baseline-shift="sub" font-size="14.00">P</text>
<text text-anchor="start" x="431.53" y="-235.4" font-family="Fira Sans" font-size="14.00">]</text>
</g>
<!-- pre_pool&#45;&gt;pool -->
<g id="edge17" class="edge" data-name="pre_pool-&gt;pool">

<path fill="none" stroke="black" d="M354.62,-247C354.62,-247 378.28,-247 378.28,-247"/>
<polygon fill="black" stroke="black" points="378.28,-250.5 388.28,-247 378.28,-243.5 378.28,-250.5"/>
</g>
<!-- D1 -->
<g id="node8" class="node" pointer-events="visible" data-name="D1">

<polygon fill="white" stroke="black" points="572.04,-323 513.95,-323 513.95,-273 572.04,-273 572.04,-323"/>
<text text-anchor="start" x="534.44" y="-300.4" font-family="Fira Sans" font-size="14.00">D1</text>
<text text-anchor="start" x="524.72" y="-286.4" font-family="Fira Sans" font-size="14.00">[</text>
<text text-anchor="start" x="529.38" y="-286.4" font-family="Fira Sans" font-style="italic" font-size="14.00">H</text>
<text text-anchor="start" x="539.49" y="-286.4" font-family="Fira Sans" font-style="italic" baseline-shift="sub" font-size="14.00">D1</text>
<text text-anchor="start" x="556.6" y="-286.4" font-family="Fira Sans" font-size="14.00">]</text>
</g>
<!-- D2 -->
<g id="node9" class="node" pointer-events="visible" data-name="D2">

<polygon fill="white" stroke="black" points="572.04,-409 513.95,-409 513.95,-359 572.04,-359 572.04,-409"/>
<text text-anchor="start" x="534.44" y="-386.4" font-family="Fira Sans" font-size="14.00">D2</text>
<text text-anchor="start" x="524.72" y="-372.4" font-family="Fira Sans" font-size="14.00">[</text>
<text text-anchor="start" x="529.38" y="-372.4" font-family="Fira Sans" font-style="italic" font-size="14.00">H</text>
<text text-anchor="start" x="539.49" y="-372.4" font-family="Fira Sans" font-style="italic" baseline-shift="sub" font-size="14.00">D2</text>
<text text-anchor="start" x="556.6" y="-372.4" font-family="Fira Sans" font-size="14.00">]</text>
</g>
<!-- D1&#45;&gt;D2 -->
<g id="edge4" class="edge" data-name="D1-&gt;D2">

<path fill="none" stroke="black" stroke-dasharray="1,5" d="M543.6,-323.34C543.6,-323.34 543.6,-347.03 543.6,-347.03"/>
<polygon fill="black" stroke="black" points="540.1,-347.03 543.6,-357.03 547.1,-347.03 540.1,-347.03"/>
</g>
<!-- D3 -->
<g id="node10" class="node" pointer-events="visible" data-name="D3">

<polygon fill="white" stroke="black" points="569.99,-499.6 515.99,-499.6 515.99,-444.4 569.99,-444.4 569.99,-499.6"/>
<text text-anchor="start" x="534.44" y="-476.2" font-family="Fira Sans" font-size="14.00">D3</text>
<text text-anchor="start" x="534.83" y="-459.4" font-family="Fira Sans" font-size="14.00">[1]</text>
</g>
<!-- D1&#45;&gt;D3 -->
<g id="edge5" class="edge" data-name="D1-&gt;D3">

<path fill="none" stroke="black" stroke-dasharray="1,5" d="M513.69,-322C503.05,-322 493.6,-322 493.6,-322 493.6,-322 493.6,-472 493.6,-472 493.6,-472 504.18,-472 504.18,-472"/>
<polygon fill="black" stroke="black" points="504.18,-475.5 514.18,-472 504.18,-468.5 504.18,-475.5"/>
</g>
<!-- D2&#45;&gt;D3 -->
<g id="edge6" class="edge" data-name="D2-&gt;D3">

<path fill="none" stroke="black" d="M543.6,-409.45C543.6,-409.45 543.6,-432.63 543.6,-432.63"/>
<polygon fill="black" stroke="black" points="540.1,-432.63 543.6,-442.63 547.1,-432.63 540.1,-432.63"/>
</g>
<!-- pre_output -->
<g id="node22" class="node" pointer-events="visible" data-name="pre_output">

<ellipse fill="white" stroke="black" cx="638.83" cy="-472" rx="0.04" ry="0.04"/>
</g>
<!-- D3&#45;&gt;pre_output -->
<g id="edge20" class="edge" data-name="D3-&gt;pre_output">

<path fill="none" stroke="black" d="M570.45,-472C597,-472 633.87,-472 638.37,-472"/>
</g>
<!-- key -->
<g id="node11" class="node" pointer-events="visible" data-name="key">

<polygon fill="white" stroke="black" points="131.33,-412.4 38.22,-412.4 38.22,-339.6 131.33,-339.6 131.33,-412.4"/>
<text text-anchor="middle" x="84.78" y="-388.6" font-family="Fira Sans" font-size="14.00">Layer name</text>
<text text-anchor="middle" x="84.78" y="-371.8" font-family="Fira Sans" font-size="14.00">[Output</text>
<text text-anchor="middle" x="84.78" y="-355" font-family="Fira Sans" font-size="14.00">Dimensions]</text>
</g>
<!-- dummy -->
<!-- key&#45;&gt;dummy -->
<!-- eg3 -->
<g id="node12" class="node" pointer-events="visible" data-name="eg3">

<ellipse fill="white" stroke="black" cx="84.78" cy="-286" rx="0" ry="0"/>
</g>
<!-- eg4 -->
<g id="node13" class="node" pointer-events="visible" data-name="eg4">

<ellipse fill="white" stroke="black" cx="84.78" cy="-304" rx="0" ry="0"/>
</g>
<!-- eg3&#45;&gt;eg4 -->
<g id="edge7" class="edge" data-name="eg3-&gt;eg4">

<path fill="none" stroke="black" d="M85.6,-286.05C85.6,-287.07 85.6,-302.96 85.6,-303.95"/>
</g>
<!-- eg5 -->
<g id="node14" class="node" pointer-events="visible" data-name="eg5">

<ellipse fill="white" stroke="black" cx="84.78" cy="-322" rx="0" ry="0"/>
</g>
<!-- eg4&#45;&gt;eg5 -->
<g id="edge8" class="edge" data-name="eg4-&gt;eg5">

<path fill="none" stroke="black" d="M85.6,-304.05C85.6,-304.05 85.6,-310.44 85.6,-310.44"/>
<polygon fill="black" stroke="black" points="82.1,-310.44 85.6,-320.44 89.1,-310.44 82.1,-310.44"/>
<text text-anchor="middle" x="124.87" y="-294.64" font-family="Fira Sans" font-size="14.00">    Connection</text>
</g>
<!-- eg0 -->
<g id="node15" class="node" pointer-events="visible" data-name="eg0">

<ellipse fill="white" stroke="black" cx="84.78" cy="-214" rx="0" ry="0"/>
</g>
<!-- eg1 -->
<g id="node16" class="node" pointer-events="visible" data-name="eg1">

<ellipse fill="white" stroke="black" cx="84.78" cy="-232" rx="0" ry="0"/>
</g>
<!-- eg0&#45;&gt;eg1 -->
<g id="edge9" class="edge" data-name="eg0-&gt;eg1">

<path fill="none" stroke="black" stroke-dasharray="1,5" d="M85.6,-214.05C85.6,-215.07 85.6,-230.96 85.6,-231.95"/>
</g>
<!-- eg11 -->
<g id="node17" class="node" pointer-events="visible" data-name="eg11">

<ellipse fill="white" stroke="black" cx="84.78" cy="-250" rx="0" ry="0"/>
</g>
<!-- eg1&#45;&gt;eg11 -->
<g id="edge10" class="edge" data-name="eg1-&gt;eg11">

<path fill="none" stroke="black" stroke-dasharray="1,5" d="M85.6,-232.05C85.6,-233.07 85.6,-248.96 85.6,-249.95"/>
</g>
<!-- eg2 -->
<g id="node18" class="node" pointer-events="visible" data-name="eg2">

<ellipse fill="white" stroke="black" cx="84.78" cy="-268" rx="0" ry="0"/>
</g>
<!-- eg11&#45;&gt;eg2 -->
<g id="edge11" class="edge" data-name="eg11-&gt;eg2">

<path fill="none" stroke="black" stroke-dasharray="1,5" d="M85.6,-250.05C85.6,-250.05 85.6,-256.44 85.6,-256.44"/>
<polygon fill="black" stroke="black" points="82.1,-256.44 85.6,-266.44 89.1,-256.44 82.1,-256.44"/>
<text text-anchor="middle" x="124.87" y="-240.64" font-family="Fira Sans" font-size="14.00">    Connection</text>
<text text-anchor="middle" x="124.87" y="-223.84" font-family="Fira Sans" font-size="14.00">    Choice</text>
</g>
<!-- pool&#45;&gt;D1 -->
<g id="edge18" class="edge" data-name="pool-&gt;D1">

<path fill="none" stroke="black" stroke-dasharray="1,5" d="M419.6,-272.43C419.6,-283.5 419.6,-294 419.6,-294 419.6,-294 502.23,-294 502.23,-294"/>
<polygon fill="black" stroke="black" points="502.23,-297.5 512.23,-294 502.23,-290.5 502.23,-297.5"/>
</g>
<!-- GP -->
<g id="node21" class="node" pointer-events="visible" data-name="GP">

<polygon fill="white" stroke="black" points="602.59,-222.6 483.39,-222.6 483.39,-167.4 602.59,-167.4 602.59,-222.6"/>
<text text-anchor="middle" x="542.99" y="-199.2" font-family="Fira Sans" font-size="14.00">Gaussian Process</text>
<text text-anchor="middle" x="542.99" y="-182.4" font-family="Fira Sans" font-size="14.00">[1]</text>
</g>
<!-- pool&#45;&gt;GP -->
<g id="edge19" class="edge" data-name="pool-&gt;GP">

<path fill="none" stroke="black" stroke-dasharray="1,5" d="M447.44,-247.4C472.07,-247.4 503.6,-247.4 503.6,-247.4 503.6,-247.4 503.6,-234.55 503.6,-234.55"/>
<polygon fill="black" stroke="black" points="507.1,-234.55 503.6,-224.55 500.1,-234.55 507.1,-234.55"/>
</g>
<!-- GP&#45;&gt;pre_output -->
<g id="edge21" class="edge" data-name="GP-&gt;pre_output">

<path fill="none" stroke="black" d="M603.07,-195C622.72,-195 639.6,-195 639.6,-195 639.6,-195 639.6,-467.69 639.6,-471.95"/>
</g>
<!-- output -->
<g id="node23" class="node" pointer-events="visible" data-name="output">

<ellipse fill="white" stroke="black" cx="721.23" cy="-472" rx="46.23" ry="27.37"/>
<text text-anchor="start" x="699.44" y="-468.8" font-family="Fira Sans" font-weight="bold" font-size="14.00">Output</text>
</g>
<!-- pre_output&#45;&gt;output -->
<g id="edge22" class="edge" data-name="pre_output-&gt;output">

<path fill="none" stroke="black" d="M639.35,-472C639.35,-472 663.14,-472 663.14,-472"/>
<polygon fill="black" stroke="black" points="663.14,-475.5 673.14,-472 663.14,-468.5 663.14,-475.5"/>
</g>
</g>
</svg>